<svg width="220" height="220" viewBox="0 0 220 220" fill="none" xmlns="http://www.w3.org/2000/svg">
<g clip-path="url(#clip0_11_31)">
<path d="M122.01 90.446C118.191 91.5157 114.162 92.0891 110 92.0891C105.839 92.0891 101.81 91.5157 97.991 90.446C79.2909 85.2092 65.572 68.04 65.572 47.6606C65.572 23.1251 85.4649 3.23218 110 3.23218C134.541 3.23218 154.429 23.1251 154.429 47.6606C154.429 68.0395 140.715 85.2092 122.01 90.446Z" fill="#3CA523"/>
<path d="M119.395 87.9648C116.407 88.9725 113.256 89.5125 110.001 89.5125C106.745 89.5125 103.594 88.9725 100.607 87.9648C85.9792 83.0316 75.248 66.8579 75.248 47.6606C75.248 24.5477 90.8084 5.80872 110.001 5.80872C129.197 5.80872 144.753 24.5477 144.753 47.6606C144.753 66.8579 134.026 83.0316 119.395 87.9648Z" fill="#44CC27"/>
<path d="M99.3991 64.098C103.156 67.8604 104.149 73.343 102.378 78.0116C97.7099 79.7825 92.2274 78.7899 88.465 75.0322C84.7026 71.2698 83.7147 65.7872 85.4856 61.1187C90.1542 59.3472 95.6363 60.3352 99.3991 64.098Z" fill="#F24125"/>
<path d="M134.521 61.1187C136.292 65.7872 135.299 71.2698 131.537 75.0322C127.774 78.7894 122.297 79.7825 117.623 78.0115C115.852 73.343 116.845 67.8604 120.608 64.098C124.37 60.3352 129.853 59.3472 134.521 61.1187Z" fill="#F24125"/>
<path d="M152.771 174.023C152.702 174.629 149.062 175.167 148.631 175.548C148.203 175.934 147.638 176.164 147.027 176.164C145.585 176.164 144.464 174.9 144.638 173.467C145.387 167.137 146.334 151.252 138.331 143.153V174.51H138.322C138.322 174.51 138.726 193.791 132.689 209.46C131.913 211.468 132.685 213.746 134.504 214.895L138.891 217.651H128.629C125.808 217.651 123.649 215.143 124.063 212.354L124.614 208.67C125.234 203.952 125.919 197.902 126.277 191.838C126.295 191.503 126.304 191.172 126.304 190.841C126.304 182.008 119.253 174.699 110.346 174.515C110.231 174.51 110.116 174.51 110.001 174.51C109.886 174.51 109.771 174.51 109.656 174.515C100.414 174.708 93.1646 182.563 93.7206 191.838C94.0787 197.902 94.7635 203.952 95.3834 208.67L95.9347 212.354C95.9667 212.584 95.9855 212.814 95.9855 213.039C95.9855 215.542 93.9551 217.651 91.3687 217.651H81.1061L85.4932 214.895C87.3168 213.746 88.0843 211.468 87.3078 209.46C81.2716 193.791 81.6758 174.51 81.6758 174.51V143.153C73.6688 151.252 74.6149 167.137 75.3683 173.467C75.382 173.564 75.3867 173.66 75.3867 173.757C75.3867 175.066 72.8162 174.508 71.4659 174.508C70.2392 174.508 67.3689 175.242 67.2307 174.025C63.1144 138.689 79.6496 116.908 87.055 107.735C88.332 105.975 97.8688 95.4553 99.2238 90.4065C102.651 91.3667 106.266 91.8809 110.001 91.8809C113.736 91.8809 117.351 91.3662 120.778 90.4065C122.133 95.4553 131.688 105.993 132.97 107.767C140.384 116.954 156.883 138.724 152.771 174.023Z" fill="#3CA523"/>
<path d="M133.416 217.65H128.629C125.808 217.65 123.649 215.142 124.063 212.354L124.614 208.67C125.234 203.952 125.919 197.902 126.277 191.838C126.295 191.503 126.304 191.172 126.304 190.841C126.304 182.007 119.253 174.698 110.346 174.514C110.231 174.51 110.116 174.51 110.001 174.51C109.886 174.51 109.771 174.51 109.657 174.514C100.414 174.707 93.1646 182.563 93.7206 191.838C94.0787 197.902 94.7635 203.952 95.3835 208.67L95.9348 212.354C95.9667 212.584 95.9855 212.813 95.9855 213.038C95.9855 215.542 93.9551 217.65 91.3687 217.65H86.5864L90.1373 214.894C91.6164 213.746 92.2415 211.468 91.6117 209.46C86.7194 193.79 87.0456 174.51 87.0456 174.51C87.0456 174.51 85.4058 123.114 91.4054 113.94C92.4389 112.181 100.17 101.661 101.268 96.6119C104.043 97.5722 106.974 98.0863 110.001 98.0863C113.028 98.0863 115.959 97.5717 118.734 96.6119C119.832 101.661 127.577 112.199 128.615 113.972C134.624 123.16 132.961 174.509 132.961 174.509H132.951C132.951 174.509 133.282 193.79 128.389 209.459C127.76 211.467 128.385 213.745 129.86 214.894L133.416 217.65Z" fill="#44CC27"/>
<path d="M110.001 94.4391C105.709 94.4391 101.455 93.8568 97.3574 92.7086C77.2592 87.0803 63.222 68.5556 63.222 47.6607C63.222 21.8669 84.2067 0.882202 110.001 0.882202C135.794 0.882202 156.779 21.8669 156.779 47.6607C156.779 68.5575 142.742 87.0822 122.643 92.7091H122.644C122.643 92.7091 122.643 92.7091 122.643 92.7091C118.546 93.8568 114.292 94.4391 110.001 94.4391ZM110.001 5.58223C86.7983 5.58223 67.9221 24.4585 67.9221 47.6607C67.9221 66.457 80.5473 83.1205 98.625 88.1829C105.997 90.2486 114.005 90.2481 121.376 88.1829C121.376 88.1829 121.376 88.1829 121.376 88.1829C139.453 83.1219 152.078 66.4585 152.078 47.6607C152.079 24.4585 133.203 5.58223 110.001 5.58223Z" fill="#333333"/>
<path d="M119.84 13.4035C119.638 13.4035 119.434 13.3777 119.23 13.3227C116.237 12.5204 113.131 12.1134 110.001 12.1134C108.702 12.1134 107.651 11.061 107.651 9.76335C107.651 8.46567 108.702 7.41333 110.001 7.41333C113.542 7.41333 117.057 7.87393 120.447 8.78245C121.7 9.1185 122.444 10.4072 122.108 11.6607C121.827 12.7112 120.877 13.4035 119.84 13.4035Z" fill="white"/>
<path d="M147.897 50.0107C146.599 50.0107 145.547 48.9584 145.547 47.6607C145.547 35.7654 139.636 24.7109 129.734 18.0895C128.655 17.368 128.365 15.9087 129.087 14.8295C129.808 13.7509 131.268 13.4609 132.347 14.1824C143.555 21.678 150.247 34.1932 150.247 47.6602C150.247 48.9584 149.195 50.0107 147.897 50.0107Z" fill="white"/>
<path d="M97.7406 81.2113C93.7117 81.2113 89.7519 79.6387 86.8041 76.6955C82.5134 72.4049 81.1339 65.964 83.2884 60.2854C83.5272 59.6565 84.023 59.1602 84.6519 58.9219C90.3305 56.7674 96.7719 58.1473 101.061 62.437C101.061 62.437 101.062 62.4375 101.062 62.438C105.349 66.731 106.728 73.1715 104.576 78.8458C104.337 79.4747 103.841 79.971 103.212 80.2093C101.433 80.8833 99.5797 81.2113 97.7406 81.2113ZM87.3497 62.9832C86.3632 66.6647 87.3991 70.6433 90.1265 73.3707C92.8558 76.0963 96.8349 77.1322 100.514 76.1475C101.5 72.4679 100.463 68.4893 97.7363 65.759C95.0094 63.0321 91.0313 61.9967 87.3497 62.9832Z" fill="#333333"/>
<path d="M122.26 81.2104C120.421 81.2104 118.569 80.8828 116.79 80.2088C116.161 79.9706 115.664 79.4742 115.426 78.8449C113.272 73.1682 114.654 66.7273 118.946 62.4361H118.945C118.946 62.4361 118.946 62.4361 118.946 62.4361C123.235 58.1464 129.675 56.767 135.354 58.9215C135.983 59.1602 136.479 59.6565 136.717 60.2849C138.871 65.9616 137.49 72.4026 133.198 76.6942C130.251 79.6373 126.29 81.2104 122.26 81.2104ZM119.488 76.1466C123.169 77.1303 127.146 76.0949 129.876 73.3694C132.604 70.6415 133.642 66.6629 132.657 62.9828C128.975 61.9962 124.996 63.0321 122.269 65.7595C122.269 65.7595 122.269 65.7595 122.269 65.7595C119.54 68.4888 118.502 72.4665 119.488 76.1466ZM120.608 64.0981H120.612H120.608Z" fill="#333333"/>
<path d="M138.892 220H128.627C126.601 220 124.68 219.12 123.356 217.585C122.03 216.048 121.441 214.015 121.738 212.008L122.289 208.321C123.084 202.271 123.639 196.665 123.931 191.699C123.947 191.416 123.955 191.126 123.955 190.841C123.955 183.131 117.695 176.858 110.001 176.858C102.307 176.858 96.0471 183.131 96.0471 190.841C96.0471 191.126 96.055 191.416 96.0715 191.705C96.3634 196.665 96.918 202.271 97.7188 208.362L98.2631 212.006C98.5611 214.015 97.9717 216.048 96.6463 217.585C95.3228 219.12 93.4014 220 91.3752 220H81.1104C80.0627 220 79.142 219.306 78.852 218.3C78.562 217.293 78.9737 216.216 79.8611 215.659L84.2509 212.905C85.1204 212.355 85.4898 211.259 85.1218 210.303C79.2632 195.104 79.2961 176.988 79.3258 174.679C79.3215 174.623 79.3196 174.566 79.3196 174.509V151.424C76.518 159.022 77.1553 168.612 77.6958 173.189C77.817 174.159 77.3931 175.122 76.5612 175.748C74.4227 177.357 67.8008 176.893 66.4698 176.323C65.5885 175.945 65.0005 175.187 64.8962 174.296C60.5416 136.915 79.0287 113.938 85.1674 106.336C85.495 105.891 86.091 105.178 86.9741 104.12C89.8134 100.719 95.7213 93.6424 96.8888 90.0192L101.362 91.4602C100.027 95.6061 95.0981 101.723 90.5823 107.132C89.8181 108.047 89.1582 108.837 88.9378 109.143C88.9129 109.177 88.8875 109.211 88.8602 109.244C66.7391 136.638 68.2779 161.982 69.3796 172.116C70.4239 172.185 71.8447 172.175 72.8529 172.077C72.1455 164.527 71.9594 149.64 79.9983 141.503C80.6681 140.825 81.6814 140.619 82.5627 140.981C83.4444 141.343 84.0201 142.201 84.0201 143.154V174.304C84.0277 174.388 84.0305 174.472 84.0291 174.557C84.0253 174.746 83.7114 193.574 89.5074 208.613C90.3901 210.902 89.9521 213.439 88.5016 215.3H91.3752C92.0426 215.3 92.6508 215.022 93.0874 214.515C93.526 214.007 93.713 213.362 93.6143 212.698L93.0649 209.015C92.2438 202.773 91.6784 197.054 91.3795 191.976C91.3578 191.597 91.3475 191.217 91.3475 190.841C91.3475 180.54 99.7159 172.159 110.001 172.159C120.288 172.159 128.656 180.54 128.656 190.841C128.656 191.212 128.645 191.591 128.624 191.97C128.325 197.053 127.759 202.772 126.944 208.975L126.388 212.7C126.29 213.362 126.477 214.007 126.915 214.515C127.352 215.021 127.96 215.3 128.628 215.3H131.503C130.05 213.437 129.613 210.901 130.496 208.612C136.302 193.549 135.979 174.746 135.974 174.558C135.972 174.471 135.976 174.386 135.983 174.301V143.154C135.983 142.201 136.559 141.343 137.441 140.981C138.322 140.619 139.335 140.825 140.005 141.503C148.048 149.646 147.857 164.544 147.15 172.077C148.155 172.175 149.57 172.186 150.613 172.117C154.031 137.584 136.848 116.31 131.142 109.245C131.115 109.211 131.09 109.177 131.065 109.143C130.844 108.838 130.184 108.047 129.421 107.132C124.905 101.724 119.976 95.6061 118.641 91.4602L123.114 90.0192C124.281 93.6424 130.189 100.719 133.028 104.12C133.911 105.177 134.507 105.891 134.835 106.336C139.308 111.878 144.991 119.594 149.367 130.206C154.994 143.851 156.925 158.685 155.106 174.296C155.003 175.186 154.415 175.943 153.535 176.321C152.204 176.892 145.583 177.357 143.443 175.748C142.61 175.122 142.186 174.16 142.309 173.174C142.848 168.607 143.485 159.021 140.683 151.424V174.508C140.683 174.566 140.681 174.623 140.677 174.679C140.707 176.99 140.739 195.105 134.881 210.303C134.513 211.258 134.882 212.354 135.759 212.91L140.141 215.659C141.029 216.216 141.441 217.293 141.15 218.3C140.861 219.306 139.94 220 138.892 220ZM73.0263 173.728C73.0277 173.738 73.0287 173.747 73.0296 173.756C73.0282 173.747 73.0272 173.737 73.0263 173.728ZM146.977 173.714C146.976 173.723 146.975 173.731 146.974 173.74C146.975 173.732 146.976 173.723 146.977 173.714Z" fill="#333333"/>
<path d="M84.3233 13.78C83.4989 13.78 82.6994 13.3457 82.2689 12.5749L77.1999 3.49585C76.5673 2.36267 76.9734 0.931044 78.1066 0.298419C79.2407 -0.334675 80.6714 0.0718777 81.3045 1.20459L86.373 10.2836C87.0056 11.4168 86.5995 12.8484 85.4663 13.4811C85.104 13.6836 84.7106 13.78 84.3233 13.78Z" fill="#333333"/>
<path d="M135.678 13.78C135.29 13.78 134.897 13.6837 134.534 13.4816C133.401 12.8489 132.995 11.4173 133.628 10.2841L138.696 1.20507C139.329 0.072366 140.76 -0.334187 141.894 0.298908C143.027 0.931532 143.433 2.36316 142.801 3.49634L137.732 12.5754C137.302 13.3457 136.502 13.78 135.678 13.78Z" fill="#333333"/>
<path d="M130.212 68.0945C129.592 68.0945 128.985 67.8454 128.548 67.4083C128.111 66.9712 127.862 66.3649 127.862 65.7445C127.862 65.1288 128.111 64.5224 128.548 64.0853C128.656 63.9725 128.779 63.8785 128.905 63.7892C129.033 63.7046 129.169 63.6341 129.314 63.573C129.455 63.5166 129.601 63.4696 129.751 63.4414C130.518 63.2863 131.326 63.5401 131.872 64.0853C132.309 64.5224 132.563 65.1288 132.563 65.7445C132.563 65.8996 132.544 66.0547 132.515 66.2051C132.483 66.3555 132.44 66.5012 132.379 66.6422C132.323 66.7879 132.248 66.9242 132.163 67.0511C132.078 67.178 131.979 67.3002 131.872 67.4083C131.434 67.8454 130.828 68.0945 130.212 68.0945Z" fill="white"/>
<path d="M95.6668 70.4445C95.5117 70.4445 95.3566 70.4304 95.2062 70.3975C95.0563 70.3693 94.9101 70.3223 94.7649 70.2659C94.6239 70.2048 94.4876 70.1343 94.3607 70.0497C94.2338 69.9651 94.1116 69.8664 94.0035 69.7583C93.5664 69.3165 93.3173 68.7149 93.3173 68.0945C93.3173 67.9394 93.3314 67.789 93.3596 67.6339C93.3925 67.4835 93.4348 67.3378 93.4959 67.1968C93.557 67.0558 93.6275 66.9195 93.7121 66.7879C93.7967 66.661 93.8954 66.5388 94.0035 66.4307C94.1111 66.3226 94.2338 66.2239 94.3607 66.1393C94.488 66.0547 94.6243 65.9842 94.7649 65.9231C94.9106 65.8667 95.0563 65.8197 95.2062 65.7915C95.5075 65.7304 95.8224 65.7304 96.1227 65.7915C96.2731 65.8197 96.4235 65.8667 96.5645 65.9231C96.7055 65.9842 96.8418 66.0547 96.9682 66.1393C97.0998 66.2239 97.2173 66.3226 97.3259 66.4307C97.4335 66.5388 97.5322 66.661 97.6168 66.7879C97.7019 66.9195 97.7771 67.0558 97.833 67.1968C97.8946 67.3378 97.9369 67.4835 97.9693 67.6339C97.998 67.789 98.0168 67.9394 98.0168 68.0945C98.0168 68.7149 97.763 69.3212 97.3259 69.7583C97.2178 69.8664 97.1003 69.9651 96.9682 70.0497C96.8413 70.1343 96.705 70.2048 96.5645 70.2659C96.423 70.3223 96.2731 70.3693 96.1227 70.3975C95.9723 70.4304 95.8172 70.4445 95.6668 70.4445Z" fill="white"/>
</g>
<defs>
<clipPath id="clip0_11_31">
<rect width="220" height="220" fill="white"/>
</clipPath>
</defs>
</svg>
