<svg width="220" height="220" viewBox="0 0 220 220" fill="none" xmlns="http://www.w3.org/2000/svg">
<path d="M36.1851 153.009V156.919C36.1851 159.064 37.9207 160.8 40.0609 160.8L44.4804 152.311L36.1851 153.009Z" fill="#F9763D"/>
<path d="M159.373 41.4981C163.867 44.3463 166.855 49.3639 166.855 55.0655V60.7817V99.1991H166.849C166.38 98.2714 165.912 97.3734 165.448 96.5058C163.283 92.4205 161.198 88.9043 159.372 86.0063V55.066C159.372 50.3375 155.527 46.4917 150.798 46.4917H145.606V39.009H150.798C153.951 39.009 156.889 39.9216 159.373 41.4981Z" fill="#7FC8E5"/>
<path d="M166.855 34.8637V55.0651C166.855 49.3639 163.867 44.3459 159.373 41.4976V34.8637C159.373 30.1353 155.527 26.2894 150.799 26.2894H145.606V18.8076H150.799C159.652 18.8076 166.855 26.0101 166.855 34.8637Z" fill="#6CBBD3"/>
<path d="M151.756 217.653H127.694L130.413 211.123H140.623L151.756 217.653Z" fill="#F9763D"/>
<path d="M147.77 173.16C147.81 174.766 147.825 177.205 147.696 180.178H132.308H132.303C132.093 178.507 131.819 176.831 131.465 175.17C136.917 174.686 142.354 174.018 147.77 173.16Z" fill="#158ACC"/>
<path d="M132.308 180.178H147.696C147.596 182.562 147.401 185.286 147.057 188.194H132.847C132.807 185.58 132.642 182.882 132.303 180.178H132.308Z" fill="#53AEF9"/>
<path d="M132.847 188.193H147.057C146.753 190.757 146.329 193.466 145.75 196.209H132.612C132.787 193.7 132.887 190.997 132.847 188.193Z" fill="#53AEF9"/>
<path d="M132.612 196.209H145.751C145.182 198.878 144.464 201.586 143.556 204.225H131.715C132.058 201.951 132.393 199.222 132.612 196.209Z" fill="#53AEF9"/>
<path d="M140.438 66.373C138.692 65.5448 136.867 64.8618 134.962 64.343H134.956C134.353 77.6011 123.414 88.1654 110.002 88.1654C96.594 88.1654 85.6555 77.6011 85.0518 64.343C83.1514 64.8618 81.3158 65.5453 79.56 66.3781L60.7656 119.889V171.07C64.5715 171.859 68.392 172.557 72.228 173.155C77.6451 174.013 83.0819 174.687 88.5338 175.17C95.6767 175.809 102.839 176.123 110.002 176.123C117.164 176.123 124.327 175.809 131.465 175.17C136.917 174.686 142.354 174.018 147.771 173.16C151.602 172.556 155.423 171.858 159.233 171.07C159.238 171.07 159.238 171.07 159.243 171.07V119.889L140.438 66.373ZM93.0726 130.084V99.3085H126.926V130.084H93.0726Z" fill="#44A1E0"/>
<path d="M136.477 66.373C134.958 65.5448 133.37 64.8618 131.713 64.343H131.709C131.184 77.6011 121.669 88.1654 110.003 88.1654C98.3404 88.1654 88.8258 77.6011 88.301 64.343C86.648 64.8618 85.0514 65.5453 83.5242 66.3781L67.1761 119.889V171.07C70.4863 171.859 73.8101 172.557 77.1466 173.155C81.8581 174.013 86.5874 174.687 91.3295 175.17C97.5423 175.809 103.773 176.123 110.003 176.123C116.233 176.123 122.463 175.809 128.672 175.17C133.414 174.686 138.143 174.018 142.855 173.16C146.187 172.556 149.51 171.858 152.825 171.07C152.829 171.07 152.829 171.07 152.834 171.07V119.889L136.477 66.373ZM95.2767 130.084V99.3085H124.723V130.084H95.2767Z" fill="#53AEF9"/>
<path d="M183.814 153.009L179.394 152.635L175.519 152.31C175.519 152.31 169.239 130.154 159.243 119.859V130.318H159.233C154.066 130.318 149.861 126.113 149.861 120.946V73.1215C150.878 74.1538 151.821 75.2613 152.679 76.4237C152.679 76.4237 155.448 79.7906 159.373 86.0054C161.199 88.9033 163.284 92.4201 165.448 96.5049C162.885 97.7917 161.129 100.446 161.129 103.503C161.129 107.828 164.635 111.339 168.96 111.339C170.097 111.339 171.185 111.09 172.158 110.656C177.085 122.368 181.604 136.693 183.814 153.009Z" fill="#44A1E0"/>
<path d="M145.606 61.5595V61.5647C145.456 61.545 145.302 61.5398 145.147 61.5398C142.548 61.5398 140.438 63.6496 140.438 66.2532V66.3729C138.692 65.5448 136.867 64.8617 134.962 64.343H85.0523C83.1519 64.8617 81.3163 65.5453 79.5605 66.3781V66.2532C79.5605 63.6496 77.4507 61.5398 74.8518 61.5398C74.6973 61.5398 74.5476 61.545 74.3978 61.5595V46.4908V39.009V26.2894V18.8076V11.9642C74.3978 6.67666 78.7225 2.34729 84.0096 2.34729H135.999C141.301 2.34729 145.606 6.65178 145.606 11.959V18.8076V26.2894V39.0085V46.4908V61.5595Z" fill="#0B7FB2"/>
<path d="M139.583 61.8558V61.8609C139.457 61.8398 139.328 61.8332 139.198 61.8323C137.019 61.8107 135.229 63.9026 135.203 66.5063L135.202 66.626C133.746 65.7833 132.222 65.0847 130.63 64.55L88.7835 64.1327C87.185 64.6354 85.6391 65.3035 84.1589 66.1218L84.1603 65.9969C84.1861 63.3933 82.4383 61.2657 80.2595 61.2441C80.1299 61.2426 80.0041 61.2464 79.8788 61.26L80.029 46.1922L80.1037 38.7108L80.2304 25.9922L80.3051 18.5109L80.3731 11.6675C80.4257 6.38044 84.095 2.08722 88.5281 2.13181L132.119 2.56654C136.564 2.61066 140.13 6.95131 140.077 12.2581L140.009 19.1061L139.934 26.5875L139.807 39.3061L139.733 46.7875L139.583 61.8558Z" fill="#158ACC"/>
<path d="M131.714 204.225H143.556C142.743 206.599 141.775 208.924 140.623 211.123H130.413C130.413 211.123 131.081 208.46 131.714 204.225Z" fill="#53AEF9"/>
<path d="M134.962 38.1756V64.3425H134.956C134.353 77.6005 123.414 88.1648 110.002 88.1648C96.594 88.1648 85.6555 77.6005 85.0522 64.3425V38.1756C85.0522 31.2821 87.8455 25.0472 92.3594 20.5281C96.8733 16.0142 103.113 13.2209 110.007 13.2209C123.788 13.2209 134.962 24.3941 134.962 38.1756Z" fill="#44A1E0"/>
<path d="M129.915 39.8615V62.5046H129.912C129.43 73.9773 120.704 83.1191 110.003 83.1191C99.3065 83.1191 90.5802 73.9773 90.0985 62.5046V39.8615C90.0985 33.8965 92.327 28.501 95.9283 24.5909C99.5295 20.6845 104.508 18.2677 110.007 18.2677C121.002 18.2672 129.915 27.9358 129.915 39.8615Z" fill="#53AEF9"/>
<path d="M129.36 48.7451V56.7908C129.36 66.3175 121.634 74.0439 112.107 74.0439H107.902C98.3751 74.0439 90.6487 66.3175 90.6487 56.7908V48.7451C90.6487 39.2183 98.3751 31.4919 107.902 31.4919H112.107C121.634 31.4919 129.36 39.2183 129.36 48.7451ZM123.788 66.0387C123.788 63.9486 122.093 62.2529 120.003 62.2529C117.908 62.2529 116.212 63.9486 116.212 66.0387C116.212 68.1334 117.908 69.8296 120.003 69.8296C122.093 69.8296 123.788 68.1334 123.788 66.0387Z" fill="#D8B86F"/>
<path d="M159.233 135.76V145.182C148.868 145.182 140.438 136.753 140.438 126.388V83.0228V71.8149V71.6952C140.438 69.0916 142.548 66.9818 145.147 66.9818C145.302 66.9818 145.456 66.987 145.606 67.0067C147.995 67.2311 149.86 69.2465 149.86 71.6952V78.5634V126.388C149.86 131.555 154.065 135.76 159.233 135.76Z" fill="#44A1E0"/>
<path d="M79.5605 83.0224V126.388C79.5605 136.752 71.1309 145.182 60.7661 145.182V135.76C65.9335 135.76 70.1384 131.555 70.1384 126.388V78.5682V71.6948C70.1384 69.2456 72.0088 67.2307 74.3983 67.0011C74.5481 66.9861 74.6974 66.9814 74.8523 66.9814C77.4512 66.9814 79.561 69.0911 79.561 71.6948V71.8197V83.0224H79.5605Z" fill="#44A1E0"/>
<path d="M123.21 48.7451V56.7908C123.21 66.3175 117.939 74.0439 111.439 74.0439H108.57C102.07 74.0439 96.7987 66.3175 96.7987 56.7908V48.7451C96.7987 39.2183 102.07 31.4919 108.57 31.4919H111.439C117.939 31.4919 123.21 39.2183 123.21 48.7451Z" fill="#F7D789"/>
<path d="M126.926 99.308V130.084H93.0725V99.308H126.926Z" fill="#158ACC"/>
<path d="M159.233 130.318V139.74C148.868 139.74 140.438 131.311 140.438 120.946V77.5809V66.373V66.2533C140.438 63.6496 142.548 61.5399 145.147 61.5399C145.302 61.5399 145.456 61.545 145.606 61.5647C147.995 61.7891 149.86 63.8045 149.86 66.2533V73.1215V120.946C149.86 126.113 154.065 130.318 159.233 130.318Z" fill="#158ACC"/>
<path d="M120.003 62.2529C122.093 62.2529 123.789 63.9486 123.789 66.0387C123.789 68.1334 122.093 69.8296 120.003 69.8296C117.908 69.8296 116.212 68.1339 116.212 66.0387C116.212 63.9486 117.908 62.2529 120.003 62.2529Z" fill="#F9763D"/>
<path d="M118.512 111.661V117.731C118.512 120.118 116.577 122.052 114.19 122.052H105.809C103.422 122.052 101.487 120.118 101.487 117.731V111.661C101.487 109.275 103.422 107.34 105.809 107.34H114.19C116.577 107.34 118.512 109.275 118.512 111.661Z" fill="#F73E3E"/>
<path d="M89.5864 211.123L92.3046 217.653H68.2428L79.3761 211.123H89.5864Z" fill="#F9763D"/>
<path d="M89.5864 211.123H79.3761C78.224 208.924 77.256 206.599 76.4434 204.225H88.2846C88.9179 208.46 89.5864 211.123 89.5864 211.123Z" fill="#53AEF9"/>
<path d="M72.228 173.155C77.6451 174.012 83.0819 174.686 88.5338 175.17C88.1798 176.831 87.9052 178.507 87.6958 180.177H87.6906H72.3026C72.1731 177.205 72.1881 174.761 72.228 173.155Z" fill="#158ACC"/>
<path d="M88.2846 204.225H76.4434C75.5355 201.586 74.8172 198.878 74.2487 196.21H87.387C87.6062 199.222 87.94 201.951 88.2846 204.225Z" fill="#53AEF9"/>
<path d="M87.6906 180.178H87.6958C87.3568 182.882 87.1921 185.58 87.1522 188.194H72.9416C72.5975 185.286 72.4031 182.562 72.3031 180.178H87.6906Z" fill="#53AEF9"/>
<path d="M87.3865 196.209H74.2481C73.6698 193.466 73.2454 190.757 72.9412 188.193H87.1518C87.1123 190.997 87.2119 193.7 87.3865 196.209Z" fill="#53AEF9"/>
<path d="M79.5605 77.5809V120.946C79.5605 131.311 71.1309 139.74 60.7661 139.74V130.318C65.9335 130.318 70.1384 126.113 70.1384 120.946V73.1266V66.2533C70.1384 63.8041 72.0088 61.7891 74.3983 61.5596C74.5481 61.5446 74.6974 61.5399 74.8523 61.5399C77.4512 61.5399 79.561 63.6496 79.561 66.2533V66.3781V77.5809H79.5605Z" fill="#158ACC"/>
<path d="M60.6309 41.4981C63.1148 39.9221 66.0527 39.009 69.2051 39.009H74.3973V46.4908H69.2051C64.4767 46.4908 60.6309 50.3366 60.6309 55.065V86.0054C58.5709 89.2625 56.2015 93.298 53.7476 98.0414C53.5481 98.4203 53.3486 98.8048 53.149 99.1986V60.7812V55.065C53.149 49.3639 56.1367 44.3458 60.6309 41.4981Z" fill="#7FC8E5"/>
<path d="M74.3978 18.8076V26.2894H69.2056C64.4772 26.2894 60.6313 30.1353 60.6313 34.8637V41.4976C56.1372 44.3459 53.1495 49.3635 53.1495 55.0651V34.8637C53.1495 26.0101 60.352 18.8076 69.2056 18.8076H74.3978Z" fill="#6CBBD3"/>
<path d="M149.86 79.1221V120.946C149.86 124.333 151.671 127.31 154.37 128.952L159.233 119.844C160.974 121.634 159.233 119.844 159.233 119.844C169.234 130.139 175.518 152.31 175.518 152.31L178.89 152.595C176.446 134.918 171.313 119.594 165.902 107.424H165.896L161.387 98.0414C158.933 93.298 156.564 89.2625 154.504 86.0054C152.639 83.0426 151.033 80.7333 149.86 79.1221Z" fill="#53AEF9"/>
<path d="M70.1379 73.1266V120.946C70.1379 124.333 68.3272 127.31 65.6287 128.952C64.2072 129.82 62.5463 130.318 60.7656 130.318V119.844C50.7647 130.139 44.48 152.31 44.48 152.31L41.1083 152.595L40.6046 152.635L36.1851 153.009C38.6094 135.157 43.7819 119.689 49.2337 107.424H49.2389L53.7481 98.0419C56.202 93.2984 58.5713 89.2629 60.6313 86.0058C64.5518 79.7958 67.3202 76.4241 67.3202 76.4241C68.1929 75.2561 69.1253 74.1589 70.1379 73.1266Z" fill="#44A1E0"/>
<path d="M70.1379 79.1221V120.946C70.1379 124.333 68.3272 127.31 65.6287 128.952L60.7656 119.844C59.0248 121.634 60.7656 119.844 60.7656 119.844C50.7646 130.139 44.4799 152.31 44.4799 152.31L41.1083 152.595C43.5523 134.918 48.6849 119.594 54.0969 107.424H54.102L58.6112 98.0414C61.0651 93.298 63.4345 89.2625 65.4944 86.0054C67.3596 83.0426 68.9661 80.7333 70.1379 79.1221Z" fill="#53AEF9"/>
<path d="M60.7656 98.0414V107.424H49.2384H49.2333C50.5351 104.496 51.8519 101.747 53.1491 99.1986C53.3486 98.8047 53.5481 98.4207 53.7476 98.0414H60.7656Z" fill="#F9E33D"/>
<path d="M110.002 90.5126C96.385 90.5126 85.0616 80.6093 83.0096 67.4653C82.1805 67.7747 81.3646 68.1198 80.5665 68.4986L78.554 64.2575C80.4435 63.3608 82.4219 62.6275 84.4335 62.0783C85.1217 61.891 85.8569 62.0252 86.4334 62.4454C87.0099 62.8651 87.3639 63.5237 87.3963 64.2359C87.9474 76.3382 97.8765 85.818 110.001 85.818C122.129 85.818 132.06 76.3382 132.612 64.2359C132.669 62.9825 133.702 61.9957 134.956 61.9957C135.165 61.9957 135.377 62.0234 135.578 62.0783C137.576 62.6219 139.549 63.3538 141.444 64.2524L139.432 68.4939C138.635 68.1156 137.822 67.7714 136.999 67.4639C134.947 80.6079 123.621 90.5126 110.002 90.5126Z" fill="#333333"/>
<path d="M172.157 110.656C171.184 111.09 170.097 111.339 168.959 111.339C164.634 111.339 161.128 107.828 161.128 103.503C161.128 100.446 162.884 97.7921 165.448 96.5049C165.911 97.3729 166.38 98.2705 166.849 99.1982C168.615 102.67 170.416 106.496 172.157 110.656Z" fill="#F9E33D"/>
<path d="M137.309 64.3425H132.614V38.1757C132.614 25.71 122.473 15.5683 110.007 15.5683C103.966 15.5683 98.2883 17.9193 94.0194 22.1881C89.7506 26.4617 87.3996 32.1398 87.3996 38.1757V64.3425H82.705V38.1757C82.705 30.8868 85.5438 24.0303 90.6989 18.8695C95.8555 13.713 102.712 10.8737 110.007 10.8737C125.061 10.8737 137.309 23.1214 137.309 38.1757V64.3425Z" fill="#333333"/>
<path d="M112.107 76.3917H107.902C97.0939 76.3917 88.3014 67.5991 88.3014 56.7912V48.7456C88.3014 37.9376 97.0939 29.1451 107.902 29.1451H112.107C122.915 29.1451 131.707 37.9381 131.707 48.7456V56.7912C131.707 67.5987 122.915 76.3917 112.107 76.3917ZM107.902 33.8392C99.6825 33.8392 92.996 40.5262 92.996 48.7451V56.7907C92.996 65.0101 99.683 71.6966 107.902 71.6966H112.107C120.326 71.6966 127.013 65.0096 127.013 56.7907V48.7451C127.013 40.5258 120.326 33.8392 112.107 33.8392H107.902Z" fill="#333333"/>
<path d="M89.5863 213.471H79.376C78.5028 213.471 77.7019 212.986 77.2968 212.213C76.148 210.02 75.1138 207.588 74.2223 204.985C73.3444 202.433 72.5801 199.644 71.9529 196.698C71.3975 194.066 70.9464 191.299 70.6107 188.47C70.2929 185.784 70.0732 183.027 69.9581 180.276C69.8239 177.204 69.8427 174.676 69.8816 173.097L74.5748 173.213C74.5373 174.719 74.5199 177.132 74.6481 180.076C74.7584 182.713 74.9687 185.349 75.2724 187.917C75.5917 190.607 76.0198 193.234 76.5451 195.725C77.1324 198.48 77.8451 201.085 78.6624 203.461C79.3089 205.349 80.0337 207.131 80.8238 208.776H86.6813C86.463 207.648 86.2104 206.228 85.9625 204.572C85.5522 201.862 85.2433 199.104 85.0448 196.379C84.8476 193.548 84.7668 190.785 84.8044 188.159C84.848 185.289 85.0372 182.506 85.3663 179.885C85.5921 178.084 85.8851 176.333 86.2377 174.68L88.5216 175.167L90.8806 175.165C90.8806 175.329 90.8633 175.498 90.829 175.659C90.5046 177.182 90.2337 178.8 90.0243 180.469C89.7168 182.921 89.5398 185.532 89.4985 188.229C89.4629 190.722 89.5398 193.352 89.7276 196.046C89.9168 198.643 90.2121 201.279 90.605 203.873C91.2116 207.93 91.8566 210.527 91.8627 210.553C92.0383 211.254 91.8806 211.997 91.436 212.567C90.9914 213.137 90.3088 213.471 89.5863 213.471Z" fill="#333333"/>
<path d="M104.899 56.7438C103.603 56.7438 102.552 55.6927 102.552 54.3965V44.7101C102.552 43.4139 103.603 42.3628 104.899 42.3628C106.195 42.3628 107.247 43.4139 107.247 44.7101V54.397C107.247 55.6932 106.195 56.7438 104.899 56.7438Z" fill="#333333"/>
<path d="M115.11 56.7438C113.813 56.7438 112.762 55.6927 112.762 54.3965V44.7101C112.762 43.4139 113.813 42.3628 115.11 42.3628C116.406 42.3628 117.457 43.4139 117.457 44.7101V54.397C117.457 55.6932 116.406 56.7438 115.11 56.7438Z" fill="#333333"/>
<path d="M147.953 46.4908H143.259V61.5591H147.953V46.4908Z" fill="#333333"/>
<path d="M147.953 26.2894H143.259V39.009H147.953V26.2894Z" fill="#333333"/>
<path d="M147.953 18.8076H143.258V11.9591C143.258 7.95362 140.002 4.69462 135.999 4.69462H84.0096C80.0042 4.69462 76.7452 7.95596 76.7452 11.9642V18.8076H72.0505V11.9642C72.0505 5.36688 77.4155 0 84.0096 0H135.999C142.591 0 147.953 5.36501 147.953 11.9591V18.8076Z" fill="#333333"/>
<path d="M76.7452 26.2894H72.0505V39.009H76.7452V26.2894Z" fill="#333333"/>
<path d="M76.7452 46.4908H72.0505V61.5591H76.7452V46.4908Z" fill="#333333"/>
<path d="M60.7656 142.088V137.394C69.8347 137.394 77.2132 130.016 77.2132 120.946V66.2528C77.2132 64.9481 76.1541 63.8862 74.8518 63.8862C74.7762 63.8862 74.7035 63.8872 74.6302 63.8947C73.4242 64.0106 72.4853 65.0458 72.4853 66.2523V120.945C72.4853 127.408 67.2278 132.665 60.7656 132.665V127.97C64.6392 127.97 67.7907 124.819 67.7907 120.945V66.2528C67.7907 62.5943 70.5346 59.5719 74.1734 59.2226C74.3781 59.2024 74.603 59.1921 74.8518 59.1921C78.7427 59.1921 81.9078 62.3595 81.9078 66.2533V120.946C81.9078 132.604 72.4233 142.088 60.7656 142.088Z" fill="#333333"/>
<path d="M120.003 72.1769C116.618 72.1769 113.865 69.4235 113.865 66.0387C113.865 62.6567 116.618 59.9056 120.003 59.9056C123.385 59.9056 126.136 62.6572 126.136 66.0387C126.136 69.423 123.385 72.1769 120.003 72.1769ZM120.003 64.5998C119.207 64.5998 118.559 65.2453 118.559 66.0382C118.559 66.834 119.207 67.4818 120.003 67.4818C120.796 67.4818 121.441 66.8344 121.441 66.0382C121.441 65.2453 120.796 64.5998 120.003 64.5998Z" fill="#333333"/>
<path d="M40.061 163.147C36.6297 163.147 33.8383 160.353 33.8383 156.919V153.009C33.8383 151.789 34.773 150.772 35.9889 150.67L44.2838 149.972C45.572 149.865 46.7109 150.822 46.8198 152.114C46.9282 153.406 45.9691 154.541 44.6776 154.65L38.5333 155.167V156.92C38.5333 157.765 39.2188 158.453 40.0614 158.453C41.3576 158.453 42.4087 159.504 42.4087 160.8C42.4087 162.097 41.3571 163.147 40.061 163.147Z" fill="#333333"/>
<path d="M183.814 153.009V156.919C183.814 159.064 182.078 160.8 179.938 160.8L175.519 152.311L183.814 153.009Z" fill="#F9763D"/>
<path d="M179.938 163.147C178.642 163.147 177.591 162.096 177.591 160.8C177.591 159.504 178.642 158.453 179.938 158.453C180.781 158.453 181.466 157.765 181.466 156.919V155.167L175.322 154.65C174.03 154.541 173.071 153.405 173.18 152.113C173.288 150.822 174.431 149.861 175.716 149.971L184.01 150.67C185.226 150.772 186.161 151.789 186.161 153.009V156.919C186.161 160.353 183.369 163.147 179.938 163.147Z" fill="#333333"/>
<path d="M110.002 178.47C102.76 178.47 95.4669 178.147 88.325 177.508C82.8652 177.024 77.325 176.339 71.861 175.473C68.0776 174.883 64.1829 174.174 60.2902 173.368C59.2001 173.143 58.4189 172.183 58.4189 171.07V126.55C51.2652 137.202 46.7908 152.767 46.7387 152.951C46.472 153.891 45.6505 154.568 44.6763 154.649L36.3838 155.348C35.6768 155.407 34.9754 155.142 34.4848 154.626C33.9942 154.11 33.7642 153.398 33.8599 152.693C35.9951 136.967 40.4465 121.416 47.0894 106.471C48.3442 103.648 49.6794 100.844 51.0577 98.1343C51.2615 97.7325 51.4666 97.3377 51.6718 96.948C53.8679 92.7022 56.2181 88.5935 58.6485 84.7509C62.4093 78.7939 65.1176 75.4133 65.4716 74.9777C66.411 73.7256 67.4175 72.5501 68.4635 71.483L71.8154 74.7702C70.8911 75.7129 70.0357 76.7137 69.201 77.8297C69.1799 77.8583 69.1578 77.886 69.1353 77.9132C69.109 77.9451 66.3979 81.2699 62.6173 87.2588C60.2582 90.9891 57.9762 94.9791 55.834 99.1202C55.6322 99.5038 55.4383 99.877 55.2444 100.26C53.9013 102.9 52.6018 105.63 51.3803 108.378C45.327 121.996 41.146 136.125 38.9348 150.421L42.6924 150.105C44.3505 144.759 50.2456 127.307 59.0836 118.209C59.7493 117.523 60.7648 117.31 61.6497 117.669C62.5351 118.029 63.1144 118.889 63.1144 119.844V169.152C66.3058 169.786 69.4855 170.352 72.5915 170.836C77.9555 171.686 83.3877 172.357 88.7428 172.832C95.7477 173.458 102.9 173.776 110.003 173.776C117.108 173.776 124.259 173.458 131.257 172.833C136.659 172.353 142.091 171.683 147.405 170.842C150.535 170.349 153.72 169.781 156.897 169.149V119.859C156.897 118.903 157.476 118.043 158.362 117.684C159.248 117.325 160.263 117.538 160.929 118.224C169.762 127.321 175.652 144.761 177.31 150.105L181.068 150.421C179.037 137.271 175.317 124.214 169.995 111.566C168.414 107.789 166.653 103.988 164.759 100.262C164.323 99.4009 163.86 98.5108 163.379 97.6118C161.507 94.0796 159.493 90.5981 157.388 87.2564C153.604 81.2656 150.893 77.9461 150.866 77.9132C150.841 77.8822 150.815 77.8494 150.792 77.817C149.995 76.7377 149.119 75.7119 148.19 74.7683L151.534 71.4731C152.606 72.5609 153.615 73.7411 154.534 74.9819C154.908 75.4424 157.609 78.8155 161.359 84.7514C163.527 88.194 165.601 91.7774 167.523 95.4054C168.017 96.3283 168.497 97.2508 168.946 98.139C170.89 101.962 172.7 105.87 174.323 109.749C180.195 123.704 184.172 138.155 186.141 152.693C186.236 153.399 186.006 154.11 185.515 154.626C185.024 155.142 184.323 155.406 183.616 155.348L175.324 154.649C174.35 154.568 173.528 153.891 173.261 152.951C173.209 152.767 168.739 137.216 161.591 126.568V171.069C161.591 172.239 160.735 173.209 159.616 173.388C155.781 174.179 151.92 174.882 148.137 175.479C142.719 176.337 137.179 177.019 131.673 177.508C124.537 178.147 117.246 178.47 110.002 178.47Z" fill="#333333"/>
<path d="M140.623 213.471H130.413C129.689 213.471 129.007 213.137 128.562 212.567C128.117 211.997 127.96 211.253 128.136 210.552C128.142 210.527 128.787 207.93 129.393 203.878C129.787 201.279 130.082 198.644 130.272 196.039C130.459 193.353 130.536 190.722 130.5 188.227C130.46 185.533 130.283 182.922 129.975 180.47C129.765 178.801 129.494 177.182 129.17 175.659L133.761 174.681C134.113 176.333 134.407 178.085 134.633 179.886C134.962 182.507 135.151 185.29 135.195 188.158C135.232 190.786 135.151 193.549 134.955 196.372C134.756 199.105 134.447 201.863 134.036 204.577C133.788 206.231 133.536 207.65 133.318 208.777H139.175C139.965 207.132 140.69 205.351 141.336 203.465C142.154 201.086 142.867 198.481 143.455 195.72C143.98 193.234 144.408 190.607 144.726 187.917C145.031 185.35 145.241 182.713 145.351 180.08C145.479 177.134 145.462 174.723 145.425 173.219C145.424 173.199 145.424 173.18 145.424 173.16L147.877 173.158L150.118 173.102C150.157 174.68 150.176 177.206 150.042 180.281C149.927 183.028 149.707 185.784 149.389 188.47C149.054 191.299 148.602 194.066 148.048 196.694C147.419 199.645 146.656 202.434 145.777 204.989C144.887 207.589 143.852 210.02 142.704 212.213C142.297 212.986 141.496 213.471 140.623 213.471Z" fill="#333333"/>
<path d="M92.3045 220H68.2427C67.1832 220 66.255 219.29 65.9776 218.268C65.7001 217.246 66.1414 216.164 67.0555 215.628L78.1887 209.099L80.5637 213.148L76.886 215.305H88.7854L87.4202 212.026L91.7538 210.221L94.4725 216.75C94.7743 217.475 94.6941 218.302 94.2584 218.955C93.8223 219.608 93.0894 220 92.3045 220Z" fill="#333333"/>
<path d="M151.756 220H127.694C126.91 220 126.177 219.608 125.742 218.955C125.306 218.302 125.226 217.475 125.527 216.75L128.246 210.221L132.58 212.026L131.215 215.305H143.114L139.436 213.148L141.811 209.099L152.944 215.628C153.859 216.164 154.3 217.246 154.022 218.268C153.745 219.291 152.816 220 151.756 220Z" fill="#333333"/>
<path d="M81.2562 182.525H72.3031C71.007 182.525 69.9535 181.474 69.9535 180.178C69.9535 178.882 71.0018 177.831 72.2985 177.831H81.2567C82.5529 177.831 83.604 178.882 83.604 180.178C83.604 181.474 82.5524 182.525 81.2562 182.525Z" fill="#333333"/>
<path d="M147.701 182.525H132.308C131.012 182.525 129.961 181.474 129.961 180.178C129.961 178.882 131.012 177.831 132.308 177.831H147.696C148.992 177.831 150.045 178.882 150.045 180.178C150.045 181.474 148.997 182.525 147.701 182.525Z" fill="#333333"/>
<path d="M87.1568 190.541H72.9411C71.6449 190.541 70.5914 189.49 70.5914 188.193C70.5914 186.897 71.6397 185.846 72.9364 185.846H87.1521C88.4483 185.846 89.5018 186.897 89.5018 188.193C89.5018 189.49 88.4535 190.541 87.1568 190.541Z" fill="#333333"/>
<path d="M136.583 190.541H132.847C131.551 190.541 130.497 189.49 130.497 188.193C130.497 186.897 131.545 185.846 132.842 185.846H136.583C137.879 185.846 138.93 186.897 138.93 188.193C138.93 189.49 137.879 190.541 136.583 190.541Z" fill="#333333"/>
<path d="M147.063 190.541H144.354C143.058 190.541 142.007 189.49 142.007 188.193C142.007 186.897 143.058 185.846 144.354 185.846H147.057C148.354 185.846 149.407 186.897 149.407 188.193C149.407 189.49 148.359 190.541 147.063 190.541Z" fill="#333333"/>
<path d="M87.3917 198.556H74.2482C72.952 198.556 71.9009 197.505 71.9009 196.209C71.9009 194.913 72.952 193.862 74.2482 193.862H87.3865C88.6827 193.862 89.7362 194.913 89.7362 196.209C89.7362 197.505 88.6879 198.556 87.3917 198.556Z" fill="#333333"/>
<path d="M145.75 198.556H132.612C131.316 198.556 130.262 197.505 130.262 196.209C130.262 194.913 131.311 193.862 132.607 193.862H145.751C147.047 193.862 148.098 194.913 148.098 196.209C148.098 197.505 147.047 198.556 145.75 198.556Z" fill="#333333"/>
<path d="M82.7525 206.572H76.4429C75.1467 206.572 74.0956 205.521 74.0956 204.225C74.0956 202.929 75.1467 201.878 76.4429 201.878H82.7525C84.0486 201.878 85.0998 202.929 85.0998 204.225C85.0998 205.521 84.0491 206.572 82.7525 206.572Z" fill="#333333"/>
<path d="M143.556 206.572H131.714C130.418 206.572 129.367 205.521 129.367 204.225C129.367 202.929 130.418 201.878 131.714 201.878H143.556C144.852 201.878 145.903 202.929 145.903 204.225C145.903 205.521 144.852 206.572 143.556 206.572Z" fill="#333333"/>
<path d="M159.233 142.088C147.576 142.088 138.091 132.604 138.091 120.946V66.2528C138.091 62.3595 141.256 59.1916 145.147 59.1916C145.321 59.1916 145.579 59.1958 145.867 59.2306C149.485 59.5911 152.208 62.6027 152.208 66.2523V120.945C152.208 124.819 155.36 127.97 159.233 127.97C160.529 127.97 161.581 129.021 161.581 130.317V139.739C161.581 141.037 160.529 142.088 159.233 142.088ZM145.194 63.8862C145.178 63.8862 145.163 63.8862 145.147 63.8862C143.845 63.8862 142.785 64.9477 142.785 66.2528V120.945C142.785 129.218 148.924 136.084 156.885 137.226V132.429C151.544 131.339 147.513 126.604 147.513 120.946V66.2528C147.513 65.0261 146.599 64.0148 145.386 63.9012C145.356 63.8984 145.326 63.8951 145.296 63.8909C145.263 63.8871 145.228 63.8862 145.194 63.8862Z" fill="#333333"/>
<path d="M60.7657 109.771H49.2385V105.076H58.4184V100.389H53.7477V95.6941H60.7657C62.0619 95.6941 63.113 96.7452 63.113 98.0414V107.424C63.113 108.72 62.0619 109.771 60.7657 109.771Z" fill="#333333"/>
<path d="M168.96 113.687C163.347 113.687 158.781 109.118 158.781 103.504C158.781 99.631 160.932 96.1457 164.395 94.4078L166.501 98.6038C164.635 99.5404 163.476 101.418 163.476 103.504C163.476 106.531 165.936 108.993 168.96 108.993C169.733 108.993 170.487 108.831 171.2 108.513L173.113 112.8C171.794 113.388 170.397 113.687 168.96 113.687Z" fill="#333333"/>
<path d="M126.926 132.431H93.0725C91.7763 132.431 90.7252 131.38 90.7252 130.084V114.375C90.7252 113.079 91.7763 112.028 93.0725 112.028C94.3687 112.028 95.4198 113.079 95.4198 114.375V127.736H124.579V101.655H95.4198V105.672C95.4198 106.969 94.3687 108.02 93.0725 108.02C91.7763 108.02 90.7252 106.969 90.7252 105.672V99.308C90.7252 98.0118 91.7763 96.9607 93.0725 96.9607H126.926C128.222 96.9607 129.273 98.0118 129.273 99.308V130.084C129.273 131.38 128.222 132.431 126.926 132.431Z" fill="#333333"/>
<path d="M115.858 124.848H104.141C101.098 124.848 98.6211 122.372 98.6211 119.328V110.064C98.6211 107.021 101.097 104.544 104.141 104.544H115.858C118.901 104.544 121.378 107.021 121.378 110.064V119.328C121.377 122.372 118.901 124.848 115.858 124.848ZM104.141 109.239C103.686 109.239 103.316 109.609 103.316 110.064V119.328C103.316 119.783 103.686 120.153 104.141 120.153H115.858C116.313 120.153 116.683 119.783 116.683 119.328V110.064C116.683 109.609 116.313 109.239 115.858 109.239H104.141Z" fill="#333333"/>
<path d="M77.565 78.819L91.0775 100.548L95.0642 98.0683L81.5517 76.3398L77.565 78.819Z" fill="#333333"/>
<path d="M60.7642 173.417C60.2558 173.417 59.7431 173.252 59.3126 172.913C58.2944 172.111 58.1197 170.635 58.922 169.617L80.8055 141.855C81.6078 140.837 83.0838 140.662 84.1021 141.464C85.1203 142.267 85.295 143.743 84.4927 144.761L62.6092 172.523C62.1458 173.111 61.4585 173.417 60.7642 173.417Z" fill="#333333"/>
<path d="M87.8095 139.107C87.301 139.107 86.7884 138.942 86.3579 138.603C85.3396 137.801 85.165 136.324 85.9673 135.306L91.229 128.631C92.0318 127.613 93.5078 127.438 94.5256 128.24C95.5439 129.043 95.7185 130.519 94.9162 131.537L89.6545 138.212C89.1911 138.8 88.5038 139.107 87.8095 139.107Z" fill="#333333"/>
<path d="M134.648 89.2353C134.225 89.2353 133.797 89.1207 133.411 88.8813C132.31 88.1968 131.973 86.749 132.657 85.6481L138.445 76.341C139.13 75.2401 140.576 74.9031 141.678 75.5875C142.779 76.272 143.116 77.7198 142.432 78.8207L136.644 88.1278C136.199 88.8423 135.433 89.2353 134.648 89.2353Z" fill="#333333"/>
<path d="M126.924 101.656C126.501 101.656 126.072 101.541 125.686 101.302C124.585 100.617 124.248 99.1695 124.933 98.0687L128.217 92.7877C128.901 91.6868 130.349 91.3497 131.45 92.0342C132.551 92.7187 132.888 94.1665 132.204 95.2674L128.919 100.548C128.475 101.263 127.708 101.656 126.924 101.656Z" fill="#333333"/>
<path d="M159.235 173.417C158.54 173.417 157.853 173.111 157.39 172.523L144.567 156.256C143.765 155.238 143.94 153.762 144.958 152.959C145.976 152.157 147.452 152.331 148.254 153.35L161.077 169.617C161.879 170.635 161.705 172.111 160.686 172.913C160.256 173.252 159.744 173.417 159.235 173.417Z" fill="#333333"/>
<path d="M140.726 149.937C140.032 149.937 139.345 149.63 138.881 149.042L125.082 131.537C124.28 130.519 124.455 129.042 125.473 128.24C126.491 127.438 127.967 127.612 128.769 128.631L142.568 146.136C143.371 147.154 143.196 148.631 142.178 149.433C141.747 149.772 141.235 149.937 140.726 149.937Z" fill="#333333"/>
<path d="M55.4964 55.065H50.8018V34.8636C50.8018 24.7157 59.0577 16.4602 69.2056 16.4602H74.3983C75.6945 16.4602 76.7456 17.5113 76.7456 18.8075V26.2893C76.7456 27.5855 75.6945 28.6366 74.3983 28.6366H69.2056C65.7719 28.6366 62.9787 31.4299 62.9787 34.8636V41.4975L58.284 41.5022V34.8636C58.284 28.8413 63.1833 23.942 69.2056 23.942H72.051V21.1548H69.2056C61.6463 21.1548 55.4964 27.3048 55.4964 34.8636V55.065Z" fill="#333333"/>
<path d="M55.4964 99.1986H50.8018V55.065C50.8018 48.7301 54.0068 42.9172 59.3746 39.515C62.3162 37.6484 65.7161 36.6616 69.2051 36.6616H74.3978C75.694 36.6616 76.7451 37.7127 76.7451 39.0089V46.4907C76.7451 47.7869 75.694 48.838 74.3978 48.838H69.2051C65.7715 48.838 62.9782 51.6313 62.9782 55.065V86.0053H58.2836V55.065C58.2836 49.0427 63.1829 44.1434 69.2051 44.1434H72.0505V41.3562H69.2051C66.6081 41.3562 64.0781 42.0905 61.8886 43.4796C57.8855 46.0166 55.4964 50.3474 55.4964 55.065V99.1986Z" fill="#333333"/>
<path d="M169.202 55.065H164.507V34.8636C164.507 27.3043 158.357 21.1548 150.799 21.1548H147.953V23.942H150.799C156.821 23.942 161.72 28.8413 161.72 34.8636V41.4975L157.026 41.5022V34.8636C157.026 31.4299 154.232 28.6366 150.799 28.6366H145.606C144.31 28.6366 143.259 27.5855 143.259 26.2893V18.8075C143.259 17.5113 144.31 16.4602 145.606 16.4602H150.799C160.946 16.4602 169.202 24.7162 169.202 34.8636V55.065Z" fill="#333333"/>
<path d="M169.202 99.1986H164.507V55.065C164.507 50.3474 162.118 46.0166 158.117 43.4805C155.926 42.0905 153.396 41.3562 150.799 41.3562H147.953V44.1434H150.799C156.821 44.1434 161.72 49.0427 161.72 55.065V86.0053H157.026V55.065C157.026 51.6313 154.232 48.838 150.799 48.838H145.606C144.31 48.838 143.259 47.7869 143.259 46.4907V39.0089C143.259 37.7127 144.31 36.6616 145.606 36.6616H150.799C154.288 36.6616 157.687 37.6484 160.63 39.5159C165.997 42.9172 169.202 48.7301 169.202 55.0655V99.1986Z" fill="#333333"/>
<path d="M137.198 21.4535C135.901 21.4535 134.85 20.4024 134.85 19.1062V9.09352C134.85 7.79734 135.901 6.74622 137.198 6.74622C138.494 6.74622 139.545 7.79734 139.545 9.09352V19.1062C139.545 20.4024 138.494 21.4535 137.198 21.4535Z" fill="white"/>
</svg>
