<svg width="220" height="220" viewBox="0 0 220 220" fill="none" xmlns="http://www.w3.org/2000/svg">
<g clip-path="url(#clip0_11_579)">
<path d="M144.983 71.751L164.864 37.2371L185.819 49.308L176.352 65.7432L155.397 53.6723" fill="#F24125"/>
<path d="M168.271 79.4606C175.867 87.0473 181.97 96.1324 186.081 106.242C189.907 115.649 192.013 125.939 192.013 136.717C192.013 142.549 191.396 148.239 190.22 153.72C186.844 169.52 178.854 183.607 167.725 194.509C162.353 199.777 156.241 204.305 149.565 207.913C138.123 214.111 125.022 217.629 111.1 217.629C109.744 217.629 108.397 217.596 107.06 217.53C81.801 216.287 59.5909 203.461 45.6218 184.257C35.9155 170.909 30.1876 154.479 30.1876 136.717C30.1876 135.83 30.2018 134.948 30.2302 134.066C30.8135 115.915 37.3807 99.2714 48.0164 86.0468C61.6298 69.1189 81.9196 57.7862 104.884 56.0413C106.937 55.8848 109.009 55.8042 111.1 55.8042C129.313 55.8042 146.118 61.8214 159.641 71.9734C162.695 74.2637 165.577 76.7673 168.271 79.4606Z" fill="#FCBC1D"/>
<path opacity="0.25" d="M118.027 213.226C108.562 209.883 99.9039 204.824 92.431 198.427C75.0811 183.586 64.0851 161.537 64.0851 136.918C64.0851 115.087 72.734 95.2713 86.7884 80.719C94.5316 72.7008 103.915 66.2758 114.399 61.9893C118.771 60.204 123.336 58.7943 128.05 57.7896C122.583 56.624 116.915 56.0052 111.101 56.0052C100.27 56.0052 89.943 58.1343 80.5023 61.9893C70.0184 66.2758 60.6345 72.7008 52.8913 80.719C38.8369 95.2713 30.188 115.087 30.188 136.918C30.188 161.537 41.1841 183.586 58.534 198.427C66.0069 204.824 74.6653 209.883 84.1297 213.226C92.5652 216.209 101.646 217.83 111.101 217.83C116.911 217.83 122.579 217.214 128.045 216.049C124.621 215.319 121.275 214.374 118.027 213.226Z" fill="black"/>
<path opacity="0.25" d="M149.076 117.702C147.918 112.074 149.619 106.732 153.005 104.165C153.928 103.47 154.973 102.977 156.122 102.738C161.491 101.636 167.029 106.547 168.502 113.709C169.971 120.868 166.821 127.567 161.453 128.669C159.736 129.025 157.993 128.759 156.383 128.003C152.956 126.394 150.08 122.569 149.076 117.702Z" fill="black"/>
<path d="M149.076 117.702C147.918 112.074 149.619 106.732 153.005 104.165C156.432 105.774 159.316 109.6 160.312 114.466C161.47 120.095 159.768 125.436 156.382 128.003C152.956 126.394 150.08 122.569 149.076 117.702Z" fill="#FCBC1D"/>
<path d="M159.93 131.196C158.399 131.196 156.853 130.844 155.374 130.149C154.189 129.593 153.68 128.181 154.237 126.996C154.793 125.81 156.206 125.301 157.39 125.858C158.582 126.417 159.819 126.587 160.97 126.348C162.822 125.968 164.392 124.584 165.397 122.451C166.51 120.087 166.789 117.151 166.18 114.187C164.993 108.418 160.605 104.237 156.599 105.061C155.829 105.221 155.098 105.557 154.433 106.059C151.676 108.148 150.454 112.637 151.398 117.225C151.662 118.508 150.836 119.761 149.553 120.025C148.266 120.29 147.017 119.462 146.754 118.18C145.43 111.742 147.321 105.499 151.573 102.276C152.808 101.346 154.174 100.722 155.64 100.417C162.282 99.0538 169.092 104.804 170.824 113.233C171.637 117.195 171.233 121.186 169.687 124.471C168.029 127.99 165.275 130.305 161.929 130.992C161.271 131.128 160.602 131.196 159.93 131.196Z" fill="#333333"/>
<path d="M168.791 100.356C168.012 100.356 167.25 99.9732 166.797 99.27C163.788 94.6042 160.216 90.2982 156.179 86.4721C155.228 85.5712 155.188 84.0709 156.089 83.1202C156.988 82.1705 158.49 82.1297 159.44 83.0301C163.753 87.117 167.569 91.7165 170.782 96.7005C171.491 97.801 171.174 99.2686 170.074 99.9779C169.677 100.234 169.231 100.356 168.791 100.356Z" fill="white"/>
<path d="M157.472 191.106C156.838 191.106 156.206 190.854 155.74 190.355C154.845 189.399 154.895 187.899 155.851 187.004C169.78 173.973 177.769 155.596 177.769 136.584C177.769 132.443 177.398 128.294 176.666 124.251C176.433 122.962 177.289 121.729 178.577 121.495C179.861 121.261 181.099 122.117 181.332 123.406C182.114 127.726 182.511 132.16 182.511 136.584C182.511 156.903 173.975 176.542 159.091 190.467C158.634 190.895 158.052 191.106 157.472 191.106Z" fill="white"/>
<path d="M147.499 198.912C146.723 198.912 145.963 198.531 145.508 197.832C144.796 196.734 145.108 195.265 146.206 194.553C147.417 193.767 148.618 192.933 149.774 192.075C150.827 191.294 152.311 191.514 153.091 192.566C153.872 193.618 153.652 195.103 152.6 195.883C151.364 196.8 150.081 197.691 148.788 198.53C148.389 198.788 147.942 198.912 147.499 198.912Z" fill="white"/>
<path d="M111.1 220C65.1776 220 27.8167 182.639 27.8167 136.717C27.8167 90.7942 65.1776 53.4333 111.1 53.4333C157.023 53.4333 194.383 90.7942 194.383 136.717C194.383 182.639 157.023 220 111.1 220ZM111.1 58.1751C67.7921 58.1751 32.5584 93.4088 32.5584 136.717C32.5584 180.025 67.7921 215.258 111.1 215.258C154.408 215.258 189.642 180.025 189.642 136.717C189.642 93.4088 154.408 58.1751 111.1 58.1751Z" fill="#333333"/>
<path opacity="0.25" d="M124.62 139.809C124.62 148.292 117.74 155.172 109.257 155.172C107.593 155.172 105.99 154.906 104.487 154.413C110.632 152.407 115.075 146.627 115.075 139.809C115.075 132.99 110.632 127.21 104.487 125.204C105.99 124.711 107.593 124.446 109.257 124.446C117.74 124.446 124.62 131.326 124.62 139.809Z" fill="black"/>
<path d="M74.9943 176.255C74.1171 177.402 73.017 178.322 71.6988 178.948C65.9566 181.675 58.3509 177.668 54.714 170.005C51.0771 162.343 52.7841 153.917 58.5263 151.19C59.3941 150.778 60.3045 150.522 61.2386 150.408C66.4734 149.763 72.4195 153.627 75.5111 160.138C78.3135 166.046 77.9436 172.4 74.9943 176.255Z" fill="#FCBC1D"/>
<path opacity="0.25" d="M74.9943 176.255C69.7547 176.905 63.8086 173.035 60.7217 166.53C57.9194 160.622 58.2892 154.263 61.2386 150.408C66.4734 149.763 72.4195 153.627 75.5111 160.138C78.3135 166.046 77.9436 172.4 74.9943 176.255Z" fill="black"/>
<path d="M67.8267 182.183C65.6901 182.183 63.4762 181.61 61.3131 180.471C57.6548 178.544 54.5509 175.189 52.5732 171.022C50.5954 166.855 49.9581 162.328 50.7789 158.276C51.6504 153.973 54.0402 150.697 57.5083 149.05C60.9764 147.404 65.0253 147.624 68.9107 149.67C72.5689 151.596 75.6728 154.952 77.6506 159.119C78.212 160.302 77.7085 161.716 76.5254 162.277C75.3419 162.839 73.9279 162.335 73.367 161.152C71.8259 157.905 69.4588 155.317 66.7011 153.866C64.1699 152.533 61.6274 152.344 59.5416 153.334C57.4557 154.324 55.9938 156.413 55.4262 159.217C54.8074 162.271 55.3158 165.741 56.8568 168.988C58.3979 172.235 60.7649 174.823 63.5222 176.275C66.0533 177.609 68.5963 177.797 70.6822 176.807C72.7681 175.817 74.2295 173.727 74.7975 170.924C75.0574 169.641 76.3078 168.811 77.5918 169.071C78.8749 169.331 79.7047 170.582 79.4449 171.865C78.5738 176.168 76.1835 179.444 72.7154 181.091C71.1787 181.82 69.5271 182.183 67.8267 182.183Z" fill="#333333"/>
<path d="M109.258 157.541C99.4804 157.541 91.5258 149.586 91.5258 139.808C91.5258 138.499 92.5874 137.437 93.8966 137.437C95.2058 137.437 96.2675 138.499 96.2675 139.808C96.2675 146.972 102.095 152.799 109.258 152.799C116.422 152.799 122.249 146.971 122.249 139.808C122.249 132.645 116.422 126.817 109.258 126.817C106.899 126.817 104.59 127.456 102.58 128.663C101.458 129.337 100.002 128.974 99.3268 127.852C98.6525 126.729 99.0158 125.273 100.138 124.598C102.885 122.948 106.039 122.076 109.258 122.076C119.036 122.076 126.991 130.03 126.991 139.808C126.991 149.586 119.036 157.541 109.258 157.541Z" fill="#333333"/>
<path d="M108.311 100.932C106.168 100.932 104.025 100.116 102.393 98.4848C101.467 97.5587 101.467 96.0575 102.393 95.1319C103.319 94.2063 104.82 94.2063 105.746 95.1319C107.16 96.5459 109.461 96.5459 110.876 95.1319C112.289 93.7179 112.289 91.4168 110.875 90.0023C109.462 88.5888 107.16 88.5879 105.746 90.0023C104.82 90.9279 103.319 90.9279 102.393 90.0023C101.467 89.0763 101.467 87.5751 102.393 86.6495C105.657 83.3867 110.966 83.3872 114.229 86.6495C117.491 89.9127 117.491 95.222 114.229 98.4848C112.597 100.116 110.454 100.932 108.311 100.932Z" fill="#333333"/>
<path d="M137.894 186.459C135.75 186.459 133.607 185.643 131.976 184.011C131.05 183.085 131.05 181.585 131.976 180.659C132.902 179.732 134.403 179.732 135.329 180.659C136.743 182.073 139.045 182.073 140.459 180.659C141.872 179.245 141.872 176.943 140.458 175.529C139.044 174.115 136.743 174.116 135.329 175.529C134.404 176.455 132.902 176.455 131.976 175.529C131.05 174.603 131.05 173.102 131.976 172.176C135.24 168.913 140.549 168.914 143.812 172.176C147.074 175.439 147.074 180.749 143.812 184.011C142.18 185.643 140.037 186.459 137.894 186.459Z" fill="#333333"/>
<path d="M76.405 79.4032L71.3171 84.4863L57.1299 70.2991L65.9116 68.9146L76.405 79.4032Z" fill="#F2F2F2"/>
<path d="M71.3172 84.4863L57.4524 98.3511L43.2652 84.1639L26.8874 67.786C26.1145 67.0131 25.3843 66.207 24.7015 65.3678C19.9266 59.5117 17.3423 52.1289 17.4751 44.5042C21.828 44.4331 26.1097 45.244 30.0691 46.8466C33.0374 48.0463 35.8255 49.6917 38.3339 51.7353C39.1731 52.4182 39.9792 53.1484 40.7521 53.9213L57.13 70.2991L71.3172 84.4863Z" fill="#F2F2F2"/>
<path opacity="0.25" d="M38.3339 51.7354L57.4524 98.3511L24.7015 65.3678L38.3339 51.7354Z" fill="black"/>
<path d="M57.4524 98.351L52.3692 103.439L41.8759 92.9455L43.2652 84.1638L57.4524 98.351Z" fill="#F2F2F2"/>
<path opacity="0.25" d="M57.4524 98.351L52.3692 103.439L41.8759 92.9455L43.2652 84.1638L57.4524 98.351Z" fill="black"/>
<path d="M52.3692 105.809C51.7405 105.809 51.1373 105.559 50.6925 105.115L40.1992 94.6217C39.6629 94.0849 39.4153 93.3244 39.5339 92.5747L40.9232 83.7931C41.0626 82.9125 41.6843 82.1842 42.5321 81.9087C43.3799 81.6332 44.3107 81.8566 44.9413 82.4872L59.1285 96.6744C60.0541 97.6 60.0546 99.1007 59.129 100.026L54.0459 105.114C53.6011 105.559 52.9984 105.809 52.3692 105.809C52.3702 105.809 52.3697 105.809 52.3692 105.809ZM44.406 92.1228L52.3683 100.085L54.0999 98.3515L44.8792 89.1308L44.406 92.1228Z" fill="#333333"/>
<path d="M71.3171 86.8572C70.7101 86.8572 70.1037 86.6258 69.6404 86.163L55.4532 71.9758C54.8226 71.3452 54.5992 70.4139 54.8752 69.5656C55.1512 68.7173 55.8795 68.0961 56.7605 67.9572L65.5422 66.5726C66.2923 66.4536 67.0514 66.7016 67.5872 67.2374L78.0806 77.7261C78.5254 78.1708 78.7753 78.774 78.7753 79.4032C78.7753 80.0324 78.5254 80.6356 78.0802 81.0804L72.9923 86.1635C72.53 86.6258 71.9235 86.8572 71.3171 86.8572ZM62.0992 71.9156L71.3175 81.1339L73.0506 79.4023L65.0884 71.4443L62.0992 71.9156Z" fill="#333333"/>
<path d="M55.776 96.6745L59.1288 100.027L72.9936 86.1627L69.6407 82.8098L55.776 96.6745Z" fill="#333333"/>
<path d="M38.3338 51.7353L24.7014 65.3677C19.9265 59.5117 17.3423 52.1289 17.475 44.5042C21.8279 44.4331 26.1097 45.244 30.069 46.8466C33.0373 48.0463 35.8254 49.6917 38.3338 51.7353Z" fill="#F24125"/>
<path d="M41.5885 85.8401L25.2107 69.4622C24.3761 68.6277 23.5862 67.7533 22.8621 66.8637C17.7183 60.5559 14.9624 52.5997 15.1042 44.463C15.1265 43.1851 16.1578 42.1547 17.4357 42.1334C22.0996 42.0599 26.6465 42.9039 30.9581 44.6489C34.1583 45.9419 37.1437 47.7077 39.8308 49.897C40.7184 50.6191 41.5923 51.4096 42.4278 52.2446L58.8057 68.6229L55.4528 71.9758L39.075 55.5979C38.3537 54.8767 37.6008 54.1958 36.8369 53.5742C34.5168 51.6846 31.9411 50.1606 29.18 49.0449C26.1998 47.8386 23.0873 47.1297 19.8995 46.9296C20.2893 53.1047 22.6042 59.0447 26.5384 63.8694C27.1619 64.6361 27.8428 65.3891 28.5635 66.1093L44.9414 82.4872L41.5885 85.8401Z" fill="#333333"/>
<path d="M23.0253 63.6911L26.3781 67.0439L40.0105 53.4115L36.6576 50.0587L23.0253 63.6911Z" fill="#333333"/>
<path d="M144.981 74.1223C144.579 74.1223 144.173 74.0204 143.8 73.8056C142.665 73.1522 142.275 71.7022 142.929 70.568L153.323 52.5243C153.33 52.5125 153.336 52.5006 153.342 52.4892C153.35 52.4774 153.356 52.466 153.363 52.4542L162.81 36.054C163.464 34.9193 164.913 34.5291 166.048 35.183L187.003 47.2539C187.547 47.5678 187.946 48.0852 188.109 48.6926C188.272 49.3 188.187 49.9472 187.874 50.4916L178.406 66.9268C177.752 68.0615 176.304 68.4517 175.168 67.7978L156.269 56.9109L147.038 72.935C146.599 73.6961 145.801 74.1223 144.981 74.1223ZM158.635 52.8013L175.48 62.5052L182.581 50.1786L165.735 40.4747L158.635 52.8013Z" fill="#333333"/>
<path d="M113.508 18.9763L113.522 18.9905C111.644 21.3993 108.714 22.9451 105.423 22.9451C102.133 22.9451 99.2022 21.3993 97.3245 18.9905L97.3387 18.981C96.6464 18.0991 96.0916 17.0938 95.717 16.0127C97.1111 11.9918 100.928 9.10406 105.423 9.10406C109.918 9.10406 113.74 11.9918 115.125 16.0175C114.75 17.0986 114.2 18.0943 113.508 18.9763Z" fill="#20505B"/>
<path d="M115.694 12.6414C115.694 13.8221 115.495 14.9601 115.125 16.0175C113.74 11.9918 109.918 9.10407 105.423 9.10407C100.928 9.10407 97.1112 11.9918 95.7171 16.0127C95.352 14.9601 95.1528 13.8268 95.1528 12.6414C95.1528 6.9703 99.7475 2.37085 105.423 2.37085C111.094 2.37085 115.694 6.9703 115.694 12.6414Z" fill="#1AA5E2"/>
<path d="M97.3245 18.9905C99.2022 21.3993 102.133 22.9451 105.423 22.9451C108.714 22.9451 111.644 21.3993 113.522 18.9905C121.284 24.3771 118.098 45.9045 118.098 45.9045C117.116 46.1084 116.135 46.2885 115.149 46.4403H115.144C113.75 46.6631 112.356 46.8338 110.952 46.9619C109.312 47.1041 107.666 47.1895 106.026 47.2037C105.826 47.2037 105.622 47.2037 105.423 47.2037C105.219 47.2037 105.02 47.2037 104.821 47.2037C103.176 47.1895 101.535 47.1041 99.8945 46.9619C98.4909 46.8338 97.0921 46.6631 95.6981 46.4403C94.7118 46.2885 93.7255 46.1084 92.7487 45.9045C92.7487 45.9045 89.5623 24.3771 97.3245 18.9905Z" fill="#1AA5E2"/>
<path d="M115.184 20.653L114.185 19.653L113.316 18.8255L113.494 18.9953L111.513 17.6937L111.653 17.5206L111.643 17.5125C112.184 16.824 112.601 16.0597 112.885 15.2413C113.176 14.4072 113.323 13.5347 113.323 12.6414C113.323 8.28566 109.779 4.74171 105.424 4.74171C101.068 4.74171 97.5241 8.28566 97.5241 12.6414C97.5241 13.5338 97.6701 14.4072 97.9574 15.2361C98.2429 16.0597 98.6621 16.8269 99.204 17.5173L95.4742 20.4453C94.607 19.3405 93.9351 18.1105 93.4775 16.7894C93.0161 15.4599 92.7823 14.0644 92.7823 12.6414C92.7823 5.67108 98.453 0 105.424 0C112.395 0 118.065 5.67061 118.065 12.6414C118.065 14.0696 117.829 15.4689 117.363 16.8003C116.913 18.0991 116.25 19.3163 115.395 20.4126C115.338 20.4894 115.275 20.5634 115.212 20.6302L115.209 20.6283C115.2 20.6364 115.192 20.6449 115.184 20.653ZM111.777 17.3603L111.78 17.3632L111.777 17.3603Z" fill="#333333"/>
<path d="M97.9571 16.7894L93.4771 15.2365C95.2406 10.1506 100.041 6.73322 105.423 6.73322C110.816 6.73322 115.616 10.1544 117.367 15.2465L112.883 16.7885C111.79 13.6101 108.792 11.4749 105.423 11.4749C102.06 11.4749 99.059 13.6106 97.9571 16.7894Z" fill="#333333"/>
<path d="M105.423 49.5745H104.821C103.166 49.5603 101.446 49.4759 99.6902 49.3242C98.1857 49.1867 96.7205 49.0046 95.324 48.7817C94.3354 48.6295 93.3012 48.4417 92.2647 48.2255C91.2922 48.0226 90.5491 47.235 90.4036 46.2515C90.0555 43.8992 87.2537 23.0935 95.9732 17.0426C97.0073 16.3252 98.4213 16.5405 99.1947 17.5329C100.702 19.4661 102.972 20.5747 105.424 20.5747C107.876 20.5747 110.146 19.4661 111.653 17.5334C112.427 16.54 113.842 16.3271 114.875 17.0431C123.595 23.094 120.792 43.8996 120.444 46.252C120.298 47.2359 119.554 48.024 118.58 48.2265C117.511 48.4484 116.507 48.6309 115.509 48.7841C115.494 48.7865 115.479 48.7883 115.463 48.7907C114.08 49.0103 112.635 49.1895 111.167 49.3237C109.401 49.4768 107.681 49.5608 106.046 49.575H105.423V49.5745ZM94.8778 43.9011C95.2757 43.9712 95.6697 44.0372 96.0585 44.0969C97.3634 44.3051 98.7219 44.4739 100.11 44.6009C101.733 44.7418 103.329 44.82 104.842 44.8328H106.026C107.518 44.82 109.114 44.7418 110.747 44.6C112.118 44.4748 113.474 44.306 114.769 44.0993C114.793 44.0955 114.816 44.0922 114.839 44.0893C115.213 44.0315 115.588 43.9689 115.969 43.9015C116.773 36.9218 116.657 26.757 113.557 22.3581C111.304 24.2604 108.45 25.3164 105.423 25.3164C102.396 25.3164 99.5423 24.2604 97.2885 22.3576C94.1884 26.7565 94.0736 36.9213 94.8778 43.9011Z" fill="#333333"/>
<path d="M97.6246 63.7338C96.708 63.7338 95.8355 63.1994 95.4481 62.3046C92.1351 54.6591 93.302 46.4389 93.3532 46.0927C93.5448 44.7973 94.7502 43.9011 96.0461 44.095C97.3406 44.2866 98.2348 45.491 98.0442 46.785C98.0243 46.9263 97.0508 54.0763 99.7991 60.4193C100.32 61.6209 99.7678 63.0168 98.5663 63.5375C98.2586 63.6707 97.939 63.7338 97.6246 63.7338Z" fill="#333333"/>
<path d="M113.217 63.7338C112.903 63.7338 112.583 63.6707 112.276 63.5375C111.075 63.0168 110.523 61.6209 111.043 60.4193C113.805 54.045 112.808 46.8552 112.798 46.7836C112.61 45.4891 113.507 44.2857 114.801 44.0965C116.098 43.9068 117.298 44.7992 117.489 46.0927C117.54 46.4389 118.707 54.6596 115.394 62.3046C115.007 63.1994 114.134 63.7338 113.217 63.7338Z" fill="#333333"/>
<path d="M83.3531 37.716C83.1956 37.716 83.0368 37.7004 82.8765 37.6676C81.5934 37.4059 80.7655 36.1536 81.0277 34.871C84.3493 18.5889 95.3605 17.8596 95.8275 17.8364C97.1438 17.7752 98.2477 18.7795 98.3127 20.0878C98.3767 21.387 97.3824 22.4937 96.0869 22.5715C95.7085 22.6013 88.2157 23.3591 85.6736 35.8188C85.4446 36.9417 84.4565 37.716 83.3531 37.716Z" fill="#333333"/>
<path d="M128.148 37.716C127.045 37.716 126.057 36.9421 125.827 35.8193C123.271 23.3064 115.729 22.5947 115.409 22.5705C114.102 22.506 113.109 21.3941 113.173 20.0863C113.238 18.7786 114.346 17.7762 115.673 17.8359C116.14 17.8591 127.146 18.5879 130.472 34.8695C130.735 36.1526 129.907 37.4049 128.625 37.6671C128.465 37.7003 128.305 37.716 128.148 37.716Z" fill="#333333"/>
<path d="M109.162 18.054C109.006 18.054 108.849 18.0398 108.697 18.0066C108.546 17.9782 108.399 17.9308 108.256 17.8739C108.109 17.8122 107.972 17.7411 107.844 17.6557C107.716 17.5704 107.593 17.4708 107.484 17.3618C107.043 16.9208 106.791 16.3091 106.791 15.6832C106.791 15.5315 106.805 15.375 106.839 15.2185C106.867 15.0715 106.915 14.9198 106.971 14.7775C107.033 14.6353 107.104 14.4978 107.19 14.3697C107.275 14.237 107.374 14.1184 107.484 14.0094C107.593 13.9003 107.716 13.8007 107.844 13.7106C107.972 13.6253 108.109 13.5542 108.256 13.4973C108.399 13.4356 108.546 13.3882 108.697 13.3598C109.47 13.2033 110.286 13.4593 110.836 14.0094C110.945 14.1184 111.045 14.237 111.135 14.3697C111.215 14.4978 111.291 14.6353 111.353 14.7775C111.41 14.9198 111.457 15.0715 111.486 15.2185C111.519 15.375 111.533 15.5315 111.533 15.6832C111.533 15.8397 111.519 15.9961 111.486 16.1479C111.457 16.2996 111.41 16.4466 111.353 16.5889C111.291 16.7358 111.215 16.8734 111.135 17.0014C111.045 17.1294 110.945 17.2527 110.836 17.3618C110.727 17.4708 110.609 17.5704 110.476 17.6557C110.347 17.7411 110.21 17.8122 110.068 17.8739C109.926 17.9308 109.774 17.9782 109.627 18.0066C109.47 18.0398 109.314 18.054 109.162 18.054Z" fill="white"/>
<path d="M112.167 43.186C112.093 43.186 112.018 43.1827 111.941 43.1756C110.638 43.0523 109.68 41.8958 109.804 40.5923C110.55 32.686 109.39 27.4858 109.379 27.4341C109.087 26.1576 109.885 24.8864 111.162 24.5947C112.438 24.3027 113.71 25.1007 114.001 26.3776C114.056 26.6185 115.341 32.3806 114.525 41.0376C114.409 42.2657 113.376 43.186 112.167 43.186Z" fill="white"/>
<path d="M202.226 34.7007C200.916 34.7007 199.855 33.6391 199.855 32.3299V22.1665C199.855 20.8573 200.916 19.7957 202.226 19.7957C203.536 19.7957 204.597 20.8573 204.597 22.1665V32.3299C204.597 33.6391 203.536 34.7007 202.226 34.7007Z" fill="#FCBC1D"/>
<path d="M207.308 29.619H197.144C195.835 29.619 194.774 28.5574 194.774 27.2482C194.774 25.939 195.835 24.8773 197.144 24.8773H207.308C208.618 24.8773 209.679 25.939 209.679 27.2482C209.679 28.5574 208.618 29.619 207.308 29.619Z" fill="#FCBC1D"/>
<path d="M17.7737 179.797C16.4646 179.797 15.4029 178.735 15.4029 177.426V167.263C15.4029 165.954 16.4646 164.892 17.7737 164.892C19.0829 164.892 20.1446 165.954 20.1446 167.263V177.426C20.1446 178.735 19.0829 179.797 17.7737 179.797Z" fill="#FCBC1D"/>
<path d="M22.855 174.715H12.6921C11.3829 174.715 10.3212 173.654 10.3212 172.344C10.3212 171.035 11.3829 169.974 12.6921 169.974H22.855C24.1642 169.974 25.2258 171.035 25.2258 172.344C25.2258 173.654 24.1646 174.715 22.855 174.715Z" fill="#FCBC1D"/>
</g>
<defs>
<clipPath id="clip0_11_579">
<rect width="220" height="220" fill="white"/>
</clipPath>
</defs>
</svg>
