<svg width="220" height="220" viewBox="0 0 220 220" fill="none" xmlns="http://www.w3.org/2000/svg">
<path d="M203.143 118.741C203.143 125.832 202.393 132.75 200.963 139.415C161.196 156.537 137.334 151.793 84.5884 114.354C53.2722 92.1234 23.968 104.299 6.44196 115.518C7.15107 93.4494 15.1358 73.2138 28.067 57.1348C45.2759 50.2685 72.0031 45.0453 95.4845 63.6494C125.221 87.2173 161.023 99.7738 195.931 81.6885C200.583 93.1266 203.143 105.637 203.143 118.741Z" fill="#F9911E"/>
<path d="M200.964 139.415C196.859 158.624 187.144 175.753 173.614 189.007C167.082 195.412 159.651 200.917 151.533 205.305C123.711 190.534 102.42 165.542 75.9407 161.305C52.8398 157.61 35.9076 166.995 25.1556 176.542C13.3544 160.314 6.39008 140.337 6.39008 118.741C6.39008 117.663 6.40737 116.591 6.44196 115.518C23.968 104.299 53.2722 92.1235 84.5884 114.354C137.334 151.793 161.196 156.537 200.964 139.415Z" fill="#E27F1B"/>
<path d="M163.784 40.0239C177.949 50.6663 189.156 65.0388 195.931 81.6885C161.023 99.7738 125.221 87.2173 95.4845 63.6494C72.0031 45.0453 45.2759 50.2685 28.067 57.1348C44.6187 36.5533 69.2877 22.7746 97.2083 20.653C99.7046 20.4628 102.224 20.3647 104.766 20.3647C126.91 20.3647 147.342 27.6807 163.784 40.0239Z" fill="#F9A24B"/>
<path d="M151.533 205.305C137.622 212.84 121.693 217.117 104.766 217.117C103.118 217.117 101.48 217.077 99.8545 216.996C69.1436 215.486 42.1397 199.891 25.1556 176.542C35.9076 166.995 52.8398 157.61 75.9407 161.305C102.42 165.543 123.711 190.534 151.533 205.305Z" fill="#F9A24B"/>
<path d="M174.277 49.127C145.497 57.1406 104.766 20.3647 104.766 20.3647C126.91 20.3647 147.342 27.6807 163.784 40.0239C167.497 42.8084 171.002 45.8524 174.277 49.127Z" fill="#E27F1B"/>
<path d="M169.687 92.6971C168.241 92.6971 166.995 91.6121 166.826 90.1414C166.646 88.5595 167.781 87.1309 169.363 86.9498C178 85.9628 186.492 83.3316 194.604 79.1288C196.015 78.3967 197.757 78.9484 198.489 80.362C199.221 81.7756 198.67 83.515 197.255 84.2477C188.519 88.7745 179.354 91.6104 170.017 92.6775C169.907 92.6908 169.797 92.6971 169.687 92.6971Z" fill="#333333"/>
<path d="M159.216 93.141C159.188 93.141 159.161 93.1404 159.133 93.1399C156.679 93.0707 154.178 92.8839 151.698 92.5835C150.117 92.3921 148.991 90.956 149.182 89.3752C149.374 87.795 150.811 86.6697 152.39 86.8599C154.695 87.1389 157.018 87.313 159.295 87.377C160.887 87.422 162.141 88.748 162.096 90.3392C162.052 91.9027 160.77 93.141 159.216 93.141Z" fill="#333333"/>
<path d="M141.332 90.5882C141.097 90.5882 140.858 90.5594 140.62 90.4983C125.082 86.5451 109.294 78.2721 93.6944 65.9082C71.5932 48.3983 46.388 52.9286 29.1347 59.8122C27.6571 60.4031 25.9789 59.6813 25.3897 58.2031C24.7999 56.7244 25.52 55.0473 26.9987 54.4575C45.6657 47.0095 73.0114 42.1668 97.2746 61.3901C112.233 73.2461 127.295 81.1599 142.04 84.9113C143.583 85.3039 144.515 86.8726 144.123 88.4159C143.792 89.72 142.619 90.5882 141.332 90.5882Z" fill="#333333"/>
<path d="M162.247 151.81C157.165 151.81 152.162 151.252 147.043 150.165C129.825 146.505 111.246 136.811 82.9194 116.704C69.6394 107.277 55.4347 103.423 40.699 105.253C39.1193 105.449 37.6792 104.327 37.4832 102.747C37.2872 101.168 38.4085 99.7277 39.9887 99.5317C56.1991 97.5202 71.765 101.715 86.2574 112.003C113.53 131.361 132.067 141.087 148.242 144.525C164.202 147.917 179.148 145.669 199.824 136.767C201.286 136.138 202.983 136.813 203.612 138.275C204.242 139.737 203.566 141.433 202.104 142.062C186.726 148.684 174.273 151.81 162.247 151.81Z" fill="#333333"/>
<path d="M6.44482 118.402C5.49473 118.402 4.56423 117.932 4.01424 117.073C3.15581 115.732 3.54669 113.949 4.88823 113.091C12.632 108.134 20.4114 104.441 28.0099 102.116C29.5325 101.65 31.1438 102.506 31.6097 104.029C32.0755 105.552 31.2188 107.163 29.6968 107.629C22.5993 109.801 15.2978 113.272 7.99565 117.946C7.51541 118.255 6.97694 118.402 6.44482 118.402Z" fill="#333333"/>
<path d="M151.531 208.188C151.075 208.188 150.612 208.079 150.181 207.851C139.435 202.145 129.721 194.998 120.328 188.085C119.289 187.321 118.255 186.56 117.224 185.804C115.94 184.863 115.662 183.059 116.603 181.775C117.544 180.49 119.348 180.213 120.632 181.154C121.666 181.912 122.703 182.675 123.744 183.441C132.971 190.231 142.511 197.251 152.885 202.758C154.29 203.505 154.825 205.25 154.079 206.656C153.562 207.632 152.563 208.188 151.531 208.188Z" fill="#333333"/>
<path d="M25.1567 179.425C24.3612 179.425 23.5696 179.098 23 178.456C21.9433 177.266 22.0511 175.444 23.2416 174.387C33.8771 164.943 51.7312 154.514 76.3961 158.459C89.4329 160.545 100.716 167.29 110.032 173.613C111.35 174.507 111.693 176.299 110.799 177.616C109.905 178.934 108.114 179.278 106.795 178.383C98.0027 172.416 87.407 166.06 75.4853 164.152C53.0468 160.563 36.7735 170.081 27.0702 178.698C26.5208 179.186 25.8376 179.425 25.1567 179.425Z" fill="#333333"/>
<path d="M165.422 53.1655C154.524 53.1655 141.737 48.8377 127.256 40.2286C113.389 31.985 103.259 22.8876 102.834 22.5042C101.653 21.4377 101.56 19.6153 102.626 18.4335C103.693 17.2522 105.515 17.1582 106.698 18.2248C107.094 18.5816 146.588 53.8429 173.504 46.35C175.034 45.9228 176.627 46.8193 177.054 48.3534C177.481 49.8869 176.584 51.4764 175.05 51.9036C172.028 52.7453 168.816 53.1655 165.422 53.1655Z" fill="#333333"/>
<path d="M194.409 41.2853C205.013 41.2853 213.61 32.6886 213.61 22.0839C213.61 11.4793 205.013 2.88257 194.409 2.88257C183.804 2.88257 175.207 11.4793 175.207 22.0839C175.207 32.6886 183.804 41.2853 194.409 41.2853Z" fill="#FCBC1D"/>
<path opacity="0.25" d="M175.207 22.0828C175.207 32.6883 183.801 41.2864 194.407 41.2864C196.053 41.2864 197.654 41.0795 199.177 40.6903C190.881 38.5676 184.747 31.0429 184.747 22.0833C184.747 13.1237 190.881 5.60254 199.177 3.48039C197.654 3.09067 196.053 2.88428 194.407 2.88428C183.801 2.8837 175.207 11.4778 175.207 22.0828Z" fill="black"/>
<path d="M194.409 44.1679C182.231 44.1679 172.324 34.2611 172.324 22.0839C172.324 9.90681 182.231 0 194.409 0C206.586 0 216.492 9.90681 216.492 22.0839C216.492 34.2611 206.586 44.1679 194.409 44.1679ZM194.409 5.76514C185.41 5.76514 178.089 13.0857 178.089 22.0839C178.089 31.0822 185.41 38.4027 194.409 38.4027C203.406 38.4027 210.727 31.0822 210.727 22.0839C210.727 13.0857 203.407 5.76514 194.409 5.76514Z" fill="#333333"/>
<path opacity="0.25" d="M113.188 211.764C101.681 207.699 91.1538 201.548 82.0679 193.771C60.9733 175.726 47.6039 148.918 47.6039 118.986C47.6039 92.4428 58.1195 68.3503 75.2074 50.6571C84.6219 40.9082 96.0311 33.0965 108.778 27.8848C114.093 25.7142 119.643 24.0002 125.374 22.7786C118.728 21.3615 111.836 20.6092 104.767 20.6092C91.5994 20.6092 79.0429 23.1977 67.5646 27.8848C54.8178 33.0965 43.4086 40.9082 33.9941 50.6571C16.9063 68.3503 6.39066 92.4428 6.39066 118.986C6.39066 148.918 19.76 175.726 40.8547 193.771C49.9405 201.548 60.4677 207.699 71.9749 211.764C82.2311 215.39 93.2713 217.362 104.767 217.362C111.832 217.362 118.723 216.612 125.368 215.196C121.205 214.309 117.138 213.16 113.188 211.764Z" fill="black"/>
<path d="M147.83 47.8086C147.308 47.8086 146.779 47.6662 146.303 47.3687C142.901 45.2373 139.319 43.3372 135.654 41.7195C134.197 41.0766 133.538 39.3748 134.181 37.9179C134.824 36.4622 136.523 35.8015 137.982 36.4449C141.899 38.1739 145.728 40.2055 149.363 42.4828C150.712 43.3279 151.121 45.1065 150.276 46.4561C149.729 47.3289 148.79 47.8086 147.83 47.8086Z" fill="white"/>
<path d="M161.147 184.87C160.377 184.87 159.609 184.563 159.042 183.957C157.954 182.794 158.015 180.97 159.177 179.883C176.112 164.038 185.825 141.694 185.825 118.58C185.825 95.3329 176.503 73.6952 159.576 57.652C158.42 56.5566 158.371 54.7325 159.467 53.5766C160.562 52.4213 162.386 52.3723 163.541 53.4671C181.63 70.6103 191.591 93.7343 191.591 118.58C191.591 143.284 181.212 167.163 163.116 184.092C162.56 184.613 161.853 184.87 161.147 184.87Z" fill="white"/>
<path d="M149.023 194.361C148.079 194.361 147.154 193.898 146.602 193.047C145.735 191.712 146.115 189.927 147.45 189.06C148.92 188.106 150.38 187.093 151.788 186.047C153.067 185.098 154.872 185.367 155.821 186.644C156.77 187.923 156.502 189.728 155.224 190.677C153.719 191.793 152.16 192.877 150.589 193.896C150.105 194.211 149.56 194.361 149.023 194.361Z" fill="white"/>
<path d="M198.427 21.8805C198.237 21.8805 198.047 21.8632 197.862 21.8228C197.679 21.7882 197.499 21.7306 197.326 21.6614C197.148 21.5864 196.98 21.5 196.825 21.3962C196.669 21.2924 196.519 21.1713 196.387 21.0387C195.85 20.4968 195.545 19.7589 195.545 18.9979C195.545 18.2427 195.85 17.499 196.387 16.9628C196.519 16.8302 196.669 16.7091 196.825 16.5996C196.981 16.4958 197.148 16.4093 197.326 16.3344C197.499 16.2652 197.678 16.2076 197.862 16.173C198.237 16.098 198.618 16.098 198.992 16.173C199.177 16.2076 199.356 16.2652 199.529 16.3344C199.702 16.4093 199.869 16.4958 200.024 16.5996C200.186 16.7091 200.33 16.8302 200.463 16.9628C200.601 17.0954 200.716 17.2395 200.826 17.4009C200.93 17.5566 201.017 17.7238 201.086 17.8967C201.161 18.0697 201.218 18.2542 201.253 18.4329C201.287 18.6232 201.311 18.8134 201.311 18.9979C201.311 19.1881 201.287 19.3784 201.253 19.5629C201.218 19.7474 201.161 19.9261 201.086 20.099C201.017 20.272 200.929 20.4449 200.826 20.6006C200.717 20.7563 200.601 20.9061 200.463 21.0387C200.33 21.1713 200.186 21.2924 200.024 21.3962C199.869 21.5 199.702 21.5864 199.529 21.6614C199.356 21.7306 199.177 21.7882 198.992 21.8228C198.802 21.8632 198.618 21.8805 198.427 21.8805Z" fill="#333333"/>
<path d="M192.662 29.9516C192.472 29.9516 192.282 29.9344 192.097 29.894C191.913 29.8594 191.734 29.8018 191.561 29.7326C191.382 29.6576 191.215 29.5711 191.06 29.4674C190.904 29.3636 190.754 29.2425 190.621 29.1099C190.085 28.5738 189.78 27.8301 189.78 27.0691C189.78 26.8846 189.797 26.6943 189.837 26.5041C189.873 26.3254 189.93 26.1409 189.999 25.9679C190.074 25.795 190.16 25.6278 190.264 25.4721C190.368 25.3107 190.489 25.1666 190.621 25.034C190.753 24.9014 190.904 24.7803 191.06 24.6708C191.216 24.567 191.383 24.4805 191.561 24.4056C191.734 24.3364 191.913 24.2787 192.097 24.2442C193.038 24.0539 194.029 24.3595 194.698 25.034C194.83 25.1666 194.951 25.3107 195.061 25.4721C195.165 25.6278 195.251 25.795 195.326 25.9679C195.396 26.1409 195.453 26.3254 195.488 26.5041C195.528 26.6943 195.545 26.8846 195.545 27.0691C195.545 27.8301 195.234 28.5738 194.698 29.1099C194.161 29.6461 193.417 29.9516 192.662 29.9516Z" fill="#333333"/>
<path d="M204.815 29.9413C204.412 29.9413 204.003 29.8565 203.613 29.6772C202.167 29.0125 201.533 27.3008 202.198 25.8544C203.5 23.0202 203.306 19.7283 201.68 17.0487C200.853 15.6875 201.287 13.9147 202.648 13.0886C204.009 12.2625 205.782 12.696 206.608 14.0566C209.23 18.3752 209.54 23.6855 207.437 28.2619C206.951 29.318 205.907 29.9413 204.815 29.9413Z" fill="white"/>
<path d="M104.766 220C103.075 220 101.375 219.958 99.7115 219.875C68.9989 218.365 40.9734 203.189 22.8248 178.238C10.187 160.859 3.50751 140.285 3.50751 118.741C3.50751 117.627 3.52538 116.512 3.56112 115.424C4.27024 93.3347 11.9678 72.5531 25.8203 55.328C43.3169 33.5721 69.2566 19.8857 96.9892 17.7785C99.572 17.5819 102.189 17.4822 104.766 17.4822C126.872 17.4822 147.878 24.4799 165.514 37.7184C169.309 40.5646 172.943 43.717 176.313 47.0873C185.987 56.7497 193.486 68.0257 198.6 80.6024C203.526 92.7138 206.024 105.545 206.024 118.741C206.024 125.922 205.269 133.081 203.781 140.019C199.632 159.438 189.897 177.09 175.63 191.065C168.859 197.705 161.211 203.35 152.902 207.84C138.219 215.795 121.572 220 104.766 220ZM104.766 23.2473C102.335 23.2473 99.8655 23.3413 97.4274 23.5275C71.2767 25.5147 46.8147 38.4223 30.3137 58.9416C17.251 75.1843 9.99271 94.7806 9.32338 115.611C9.28994 116.637 9.27322 117.69 9.27322 118.742C9.27322 139.06 15.5716 158.461 27.4876 174.847C44.6049 198.38 71.0334 212.693 99.9963 214.118C101.567 214.196 103.171 214.235 104.766 214.235C120.616 214.235 136.313 210.271 150.16 202.771C157.997 198.535 165.208 193.213 171.595 186.949C185.052 173.768 194.233 157.123 198.145 138.813C199.549 132.269 200.26 125.517 200.26 118.742C200.26 106.294 197.905 94.1937 193.26 82.7753C188.438 70.9158 181.365 60.2814 172.24 51.1673L172.239 51.1662C169.059 47.9878 165.633 45.0148 162.055 42.3305C145.424 29.8461 125.614 23.2473 104.766 23.2473Z" fill="#333333"/>
</svg>
