<svg width="220" height="220" viewBox="0 0 220 220" fill="none" xmlns="http://www.w3.org/2000/svg">
<path d="M104.664 216.737C48.1234 213.956 3.13142 167.23 3.13142 110C3.13142 53.7349 46.6078 7.63434 101.789 3.44452C103.618 6.01227 104.67 8.89943 104.67 12.2187C104.67 37.8336 42.0423 37.8336 42.0423 63.4485C42.0423 89.0634 104.67 89.0634 104.67 114.678C104.67 140.293 42.0423 140.293 42.0423 165.908C42.0423 191.391 104.025 191.523 104.664 216.737Z" fill="#DB2B19"/>
<path d="M104.664 216.737C104.025 191.523 42.0423 191.391 42.0423 165.908C42.0423 140.293 104.67 140.293 104.67 114.678C104.67 89.0634 42.0423 89.0634 42.0423 63.4485C42.0423 37.8336 104.67 37.8336 104.67 12.2187C104.67 8.89946 103.618 6.0123 101.789 3.44455C104.501 3.23788 107.238 3.13141 110 3.13141C134.055 3.13141 156.251 11.0789 174.112 24.4876C157.222 31.5019 138.721 37.8587 138.721 51.7809C138.721 77.3958 201.349 77.3958 201.349 103.011C201.349 128.626 138.721 128.626 138.721 154.24C138.721 171.219 166.234 176.943 184.79 186.331C165.52 205.22 139.116 216.869 110 216.869C108.209 216.869 106.43 216.825 104.664 216.737Z" fill="#F24125"/>
<path d="M138.721 51.7809C138.721 37.8587 157.222 31.502 174.112 24.4876C200.072 43.9837 216.869 75.0285 216.869 110C216.869 139.905 204.587 166.935 184.79 186.331C166.234 176.943 138.721 171.219 138.721 154.241C138.721 128.626 201.349 128.626 201.349 103.011C201.349 77.3958 138.721 77.3958 138.721 51.7809Z" fill="#FC7365"/>
<path d="M170.037 131.758C168.802 131.758 167.633 131.024 167.137 129.812C166.482 128.211 167.25 126.383 168.85 125.728C183.105 119.897 197.845 113.869 197.845 103.011C197.845 92.3013 183.668 86.4681 168.658 80.2923C152.401 73.6037 135.59 66.687 135.59 51.7815C135.59 36.871 152.5 29.9537 168.853 23.2651C170.209 22.7102 171.565 22.1553 172.911 21.596C174.509 20.9322 176.342 21.69 177.004 23.287C177.668 24.884 176.911 26.7165 175.314 27.3797C173.957 27.9428 172.59 28.502 171.224 29.0613C156.119 35.2396 141.853 41.0752 141.853 51.7815C141.853 62.4916 156.031 68.3247 171.041 74.5005C187.298 81.1892 204.108 88.1065 204.108 103.011C204.108 118.074 186.636 125.22 171.22 131.525C170.833 131.683 170.431 131.758 170.037 131.758Z" fill="#333333"/>
<path d="M156.375 137.691C155.217 137.691 154.104 137.046 153.56 135.936C152.799 134.383 153.442 132.507 154.995 131.747C156.526 130.997 158.188 130.23 160.073 129.403C161.656 128.708 163.504 129.428 164.198 131.012C164.894 132.596 164.173 134.442 162.589 135.138C160.785 135.929 159.202 136.66 157.75 137.372C157.306 137.588 156.837 137.691 156.375 137.691Z" fill="#333333"/>
<path d="M184.788 189.463C184.313 189.463 183.83 189.355 183.377 189.125C178.932 186.876 173.808 184.781 168.854 182.754C152.501 176.067 135.59 169.152 135.59 154.24C135.59 147.366 139.255 141.534 146.794 136.41C148.224 135.438 150.172 135.809 151.144 137.239C152.116 138.669 151.745 140.617 150.314 141.589C144.542 145.513 141.853 149.533 141.853 154.24C141.853 164.946 156.12 170.781 171.224 176.958C176.293 179.031 181.535 181.174 186.204 183.537C187.747 184.318 188.365 186.201 187.585 187.745C187.033 188.835 185.931 189.463 184.788 189.463Z" fill="#333333"/>
<path d="M104.663 219.869C102.97 219.869 101.577 218.518 101.534 216.817C101.268 206.321 86.4775 200.272 72.1745 194.423C59.1178 189.083 45.6171 183.562 40.7778 173.856C40.0062 172.308 40.635 170.428 42.1832 169.656C43.7313 168.884 45.6114 169.513 46.383 171.061C50.1708 178.657 62.5617 183.725 74.5456 188.626C90.7106 195.237 107.425 202.072 107.796 216.658C107.839 218.387 106.473 219.824 104.744 219.868C104.717 219.868 104.69 219.869 104.663 219.869Z" fill="#333333"/>
<path d="M42.7462 164.525C42.4262 164.525 42.0999 164.476 41.7792 164.371C40.1346 163.837 39.2334 162.071 39.7676 160.426C43.427 149.151 58.04 143.175 72.1714 137.395C87.2742 131.218 101.54 125.383 101.54 114.678C101.54 108.806 97.3767 103.98 88.0414 99.0294C86.5132 98.2196 85.9314 96.3239 86.7418 94.7958C87.5529 93.2683 89.448 92.6864 90.9755 93.4962C98.199 97.3266 107.803 103.69 107.803 114.678C107.803 129.588 90.8947 136.503 74.5431 143.191C61.7338 148.43 48.4879 153.848 45.7254 162.359C45.2945 163.684 44.0664 164.525 42.7462 164.525Z" fill="#333333"/>
<path d="M79.4858 94.7319C79.0787 94.7319 78.6647 94.6523 78.2664 94.4832C76.2579 93.6328 74.2143 92.7973 72.1708 91.9612C55.8192 85.2738 38.9109 78.3584 38.9109 63.4485C38.9109 48.5386 55.8192 41.6232 72.1708 34.9352C87.2736 28.7582 101.539 22.9237 101.539 12.2187C101.539 9.70984 100.787 7.43394 99.2393 5.26074C98.236 3.85224 98.5648 1.89699 99.9733 0.893685C101.381 -0.109617 103.336 0.219181 104.34 1.62769C106.637 4.85303 107.802 8.41595 107.802 12.2181C107.802 27.128 90.8935 34.0434 74.5419 40.7314C59.4391 46.9091 45.1737 52.7435 45.1737 63.4485C45.1737 74.1535 59.4391 79.988 74.5419 86.165C76.6092 87.0105 78.6766 87.8559 80.7083 88.7158C82.3009 89.3903 83.0455 91.2278 82.371 92.8205C81.8656 94.0148 80.7058 94.7319 79.4858 94.7319Z" fill="#333333"/>
<path opacity="0.25" d="M119.148 211.053C106.648 206.638 95.2116 199.955 85.3415 191.507C62.4258 171.904 47.9024 142.782 47.9024 110.266C47.9024 81.4316 59.3257 55.2593 77.8887 36.0387C88.1159 25.4483 100.51 16.9622 114.357 11.3006C120.131 8.94269 126.16 7.08076 132.386 5.75367C125.166 4.21427 117.679 3.39697 110 3.39697C95.6958 3.39697 82.0554 6.20897 69.5861 11.3006C55.739 16.9622 43.3449 25.4483 33.1178 36.0387C14.5548 55.2593 3.13142 81.4316 3.13142 110.266C3.13142 142.782 17.6549 171.904 40.5705 191.507C50.4407 199.955 61.8766 206.638 74.3772 211.053C85.5187 214.992 97.512 217.134 110 217.134C117.675 217.134 125.161 216.32 132.38 214.782C127.857 213.817 123.439 212.57 119.148 211.053Z" fill="black"/>
<path d="M156.781 32.9436C156.214 32.9436 155.639 32.7889 155.122 32.4658C151.425 30.1498 147.533 28.0849 143.554 26.3288C141.972 25.6305 141.255 23.7818 141.953 22.1998C142.651 20.6184 144.499 19.9007 146.082 20.5996C150.336 22.4772 154.496 24.6836 158.447 27.1587C159.912 28.0768 160.356 30.0089 159.438 31.475C158.844 32.4232 157.824 32.9436 156.781 32.9436Z" fill="white"/>
<path d="M171.247 181.838C170.41 181.838 169.576 181.504 168.959 180.846C167.778 179.582 167.844 177.601 169.107 176.42C187.854 158.879 198.179 135.228 198.179 109.825C198.179 85.0114 187.74 60.887 169.539 43.6368C168.284 42.4468 168.231 40.4653 169.421 39.2096C170.61 37.9545 172.592 37.9013 173.847 39.0906C193.291 57.5176 204.443 83.2991 204.443 109.824C204.443 136.98 193.413 162.255 173.386 180.992C172.782 181.558 172.013 181.838 171.247 181.838Z" fill="white"/>
<path d="M158.075 192.147C157.05 192.147 156.045 191.644 155.445 190.721C154.504 189.27 154.916 187.331 156.367 186.389C157.964 185.353 159.549 184.252 161.08 183.116C162.469 182.086 164.43 182.377 165.46 183.765C166.491 185.154 166.201 187.115 164.811 188.145C163.177 189.359 161.483 190.535 159.777 191.643C159.251 191.984 158.66 192.147 158.075 192.147Z" fill="white"/>
<path d="M110 220C108.167 220 106.32 219.954 104.51 219.865C45.9064 216.983 0 168.724 0 110C0 82.0892 10.4677 55.4747 29.4753 35.0605C48.3833 14.7527 73.9813 2.41557 101.553 0.321908C104.358 0.108347 107.201 0 110 0C134.015 0 156.834 7.6018 175.992 21.9831C189.357 32.0199 200.429 45.1711 208.014 60.0159C215.967 75.5821 220 92.3996 220 110C220 139.805 208.274 167.707 186.982 188.568C166.304 208.837 138.964 220 110 220ZM110 6.26281C107.358 6.26281 104.676 6.36489 102.027 6.56718C76.0293 8.54122 51.8911 20.1756 34.059 39.3286C16.1343 58.5798 6.26281 83.678 6.26281 110C6.26281 165.381 49.5532 210.891 104.818 213.609H104.819C106.527 213.694 108.27 213.737 110 213.737C137.314 213.737 163.097 203.21 182.598 184.095C202.679 164.421 213.737 138.107 213.737 110C213.737 93.3998 209.936 77.5411 202.437 62.8655C195.283 48.8643 184.839 36.4596 172.232 26.9915C154.168 13.4306 132.648 6.26281 110 6.26281Z" fill="#333333"/>
</svg>
