<svg width="220" height="220" viewBox="0 0 220 220" fill="none" xmlns="http://www.w3.org/2000/svg">
<g clip-path="url(#clip0_11_959)">
<path d="M185.51 34.3771C195.543 44.3976 203.603 56.3971 209.033 69.7494C214.087 82.1747 216.868 95.765 216.868 110C216.868 117.704 216.054 125.219 214.501 132.459C210.041 153.326 199.489 171.933 184.79 186.331C177.694 193.289 169.621 199.27 160.803 204.036C145.691 212.222 128.387 216.869 110 216.869C108.208 216.869 106.43 216.825 104.664 216.737C71.3018 215.096 41.9669 198.155 23.5167 172.791C10.6968 155.161 3.13135 133.461 3.13135 110C3.13135 108.829 3.15014 107.664 3.18771 106.499C3.95804 82.5255 12.632 60.5431 26.6794 43.0761C44.6599 20.718 71.4584 5.74988 101.789 3.44517C104.501 3.2385 107.238 3.13203 110 3.13203C134.055 3.13203 156.25 11.0795 174.112 24.4882C178.145 27.5131 181.953 30.8198 185.51 34.3771Z" fill="#FCBC1D"/>
<path opacity="0.25" d="M119.149 211.053C106.649 206.638 95.2126 199.955 85.3425 191.507C62.4269 171.904 47.9035 142.782 47.9035 110.266C47.9035 81.432 59.3269 55.2598 77.8898 36.0392C88.1169 25.4489 100.511 16.9628 114.358 11.3012C120.132 8.94327 126.161 7.08134 132.387 5.75426C125.167 4.21486 117.68 3.39757 110.001 3.39757C95.6968 3.39757 82.0564 6.20956 69.5872 11.3012C55.7401 16.9628 43.3461 25.4489 33.1189 36.0392C14.556 55.2598 3.13269 81.432 3.13269 110.266C3.13269 142.782 17.6561 171.904 40.5717 191.507C50.4418 199.955 61.8777 206.638 74.3782 211.053C85.5197 214.992 97.513 217.134 110.001 217.134C117.676 217.134 125.162 216.32 132.38 214.782C127.857 213.817 123.44 212.57 119.149 211.053Z" fill="black"/>
<path opacity="0.25" d="M160.158 84.8859C158.628 77.4513 160.875 70.3963 165.348 67.0056C166.566 66.0875 167.947 65.4362 169.464 65.1212C176.556 63.6657 183.871 70.1514 185.816 79.612C187.756 89.067 183.596 97.9144 176.505 99.3699C174.238 99.8408 171.936 99.4895 169.809 98.4906C165.282 96.3669 161.484 91.3147 160.158 84.8859Z" fill="black"/>
<path d="M160.158 84.8859C158.628 77.4513 160.875 70.3963 165.348 67.0056C169.874 69.1306 173.683 74.1847 174.998 80.6109C176.527 88.0461 174.28 95.1005 169.808 98.4912C165.282 96.3669 161.484 91.3147 160.158 84.8859Z" fill="#FCBC1D"/>
<path d="M174.494 102.709C172.472 102.709 170.431 102.244 168.477 101.326C166.912 100.591 166.239 98.726 166.974 97.161C167.71 95.5953 169.577 94.9233 171.139 95.6573C172.735 96.4069 174.327 96.6249 175.868 96.3048C181.164 95.2176 184.312 87.8626 182.748 80.242C181.182 72.6227 175.39 67.1021 170.094 68.1893C169.077 68.4004 168.112 68.8438 167.233 69.5064C163.592 72.2664 161.979 78.1954 163.225 84.2552C163.574 85.9493 162.483 87.6046 160.788 87.9534C159.091 88.3023 157.438 87.2107 157.091 85.5172C155.342 77.0142 157.841 68.7686 163.456 64.5112C165.087 63.2824 166.892 62.4582 168.829 62.0561C177.603 60.2562 186.594 67.8492 188.883 78.9826C191.168 90.1185 185.897 100.641 177.134 102.439C176.264 102.619 175.381 102.709 174.494 102.709Z" fill="#333333"/>
<path d="M186.198 61.9754C185.169 61.9754 184.162 61.4693 183.564 60.5406C179.591 54.378 174.872 48.6913 169.539 43.6373C168.284 42.448 168.231 40.4658 169.421 39.2101C170.609 37.955 172.592 37.9012 173.848 39.0911C179.543 44.489 184.583 50.5633 188.827 57.1461C189.764 58.5997 189.346 60.5374 187.892 61.475C187.367 61.8138 186.779 61.9754 186.198 61.9754Z" fill="white"/>
<path d="M171.247 181.838C170.411 181.838 169.576 181.505 168.96 180.846C167.778 179.582 167.845 177.601 169.107 176.42C187.504 159.209 198.056 134.936 198.056 109.825C198.056 104.356 197.566 98.8745 196.6 93.5348C196.292 91.8332 197.422 90.2036 199.123 89.8955C200.828 89.5886 202.454 90.7172 202.762 92.4194C203.795 98.1261 204.319 103.982 204.319 109.825C204.319 136.662 193.044 162.602 173.386 180.993C172.782 181.558 172.013 181.838 171.247 181.838Z" fill="white"/>
<path d="M158.075 192.147C157.05 192.147 156.046 191.644 155.446 190.72C154.504 189.27 154.916 187.33 156.368 186.389C157.968 185.35 159.553 184.249 161.08 183.116C162.469 182.084 164.431 182.376 165.461 183.764C166.492 185.153 166.201 187.114 164.812 188.145C163.181 189.356 161.486 190.533 159.778 191.642C159.251 191.984 158.66 192.147 158.075 192.147Z" fill="white"/>
<path d="M110 220C49.3458 220 0 170.655 0 110.001C0 49.3468 49.3458 0.000999451 110 0.000999451C170.654 0.000999451 220 49.3468 220 110.001C219.999 170.655 170.654 220 110 220ZM110 6.26379C52.7991 6.26379 6.26279 52.8001 6.26279 110.001C6.26279 167.201 52.7991 213.738 110 213.738C167.201 213.738 213.737 167.201 213.737 110.001C213.737 52.8001 167.201 6.26379 110 6.26379Z" fill="#333333"/>
<path opacity="0.25" d="M127.857 114.084C127.857 125.288 118.77 134.375 107.566 134.375C105.368 134.375 103.251 134.024 101.266 133.373C109.382 130.724 115.25 123.09 115.25 114.084C115.25 105.078 109.382 97.4434 101.266 94.7942C103.251 94.1429 105.368 93.7922 107.566 93.7922C118.77 93.7928 127.857 102.88 127.857 114.084Z" fill="black"/>
<path d="M62.3116 162.221C61.1529 163.737 59.7 164.952 57.9589 165.779C50.3747 169.38 40.3292 164.088 35.5256 153.967C30.722 143.846 32.9766 132.717 40.5609 129.116C41.707 128.571 42.9094 128.233 44.1432 128.083C51.0573 127.231 58.9109 132.335 62.9942 140.934C66.6955 148.738 66.207 157.13 62.3116 162.221Z" fill="#FCBC1D"/>
<path opacity="0.25" d="M62.3116 162.221C55.3913 163.079 47.5377 157.969 43.4606 149.376C39.7593 141.573 40.2478 133.175 44.1433 128.083C51.0574 127.231 58.9109 132.335 62.9943 140.934C66.6956 148.738 66.2071 157.13 62.3116 162.221Z" fill="black"/>
<path d="M52.9268 170.023C45.2004 170.023 37.0105 164.395 32.6986 155.31C27.161 143.643 30.0851 130.626 39.2169 126.291C43.7969 124.117 49.1453 124.407 54.277 127.109C59.1088 129.654 63.2084 134.086 65.8206 139.59C66.5628 141.152 65.897 143.02 64.3345 143.761C62.7731 144.503 60.9043 143.837 60.1634 142.275C58.128 137.986 55.001 134.569 51.3586 132.651C48.0155 130.89 44.6574 130.641 41.9018 131.949C35.8895 134.802 34.2994 144.077 38.3558 152.625C42.4122 161.171 50.602 165.805 56.6168 162.951C59.3712 161.643 61.302 158.884 62.0523 155.181C62.3961 153.485 64.0489 152.39 65.743 152.733C67.4383 153.076 68.5337 154.729 68.1905 156.424C67.0394 162.107 63.8829 166.434 59.3023 168.609C57.2813 169.568 55.1225 170.023 52.9268 170.023Z" fill="#333333"/>
<path d="M107.567 137.505C94.6527 137.505 84.1462 126.998 84.1462 114.084C84.1462 112.355 85.5479 110.952 87.2776 110.952C89.0074 110.952 90.409 112.355 90.409 114.084C90.409 123.545 98.106 131.242 107.567 131.242C117.028 131.242 124.725 123.544 124.725 114.084C124.725 104.623 117.028 96.9255 107.567 96.9255C104.451 96.9255 101.401 97.7685 98.7461 99.363C97.2637 100.254 95.3397 99.7738 94.4498 98.2908C93.5592 96.8084 94.0396 94.8844 95.522 93.9939C99.15 91.8144 103.315 90.6621 107.567 90.6621C120.482 90.6621 130.988 101.169 130.988 114.083C130.988 126.998 120.482 137.505 107.567 137.505Z" fill="#333333"/>
<path d="M106.316 62.7419C103.364 62.7419 100.589 61.5921 98.5005 59.5047C97.278 58.2816 97.278 56.2988 98.5012 55.0763C99.723 53.8531 101.706 53.8531 102.93 55.0763C103.834 55.9812 105.037 56.4791 106.316 56.4791C107.596 56.4791 108.799 55.9806 109.704 55.0763C111.571 53.2087 111.571 50.1694 109.703 48.3012C108.799 47.3962 107.596 46.8983 106.316 46.8983C105.037 46.8983 103.834 47.3962 102.93 48.3012C101.706 49.5243 99.7243 49.5243 98.5012 48.3012C97.278 47.0787 97.278 45.0959 98.5005 43.8728C100.589 41.7847 103.364 40.6355 106.316 40.6355C109.269 40.6355 112.044 41.7854 114.132 43.8728C118.441 48.1828 118.441 55.1953 114.132 59.5047C112.044 61.5921 109.269 62.7419 106.316 62.7419Z" fill="#333333"/>
<path d="M145.389 175.704C142.436 175.704 139.661 174.554 137.573 172.467C136.35 171.244 136.35 169.261 137.574 168.038C138.795 166.815 140.779 166.815 142.002 168.038C142.906 168.943 144.109 169.441 145.389 169.441C146.668 169.441 147.871 168.943 148.776 168.038C149.681 167.133 150.179 165.93 150.179 164.651C150.179 163.371 149.681 162.168 148.776 161.263C147.871 160.358 146.668 159.86 145.389 159.86C144.109 159.86 142.906 160.358 142.002 161.263C140.779 162.486 138.797 162.486 137.574 161.263C136.35 160.041 136.35 158.058 137.573 156.835C139.661 154.747 142.437 153.597 145.389 153.597C148.341 153.597 151.117 154.747 153.205 156.835C155.292 158.922 156.442 161.698 156.442 164.651C156.442 167.603 155.292 170.379 153.204 172.467C151.117 174.554 148.342 175.704 145.389 175.704Z" fill="#333333"/>
</g>
<defs>
<clipPath id="clip0_11_959">
<rect width="220" height="220" fill="white"/>
</clipPath>
</defs>
</svg>
