<svg width="220" height="220" viewBox="0 0 220 220" fill="none" xmlns="http://www.w3.org/2000/svg">
<path d="M207.049 120.109C207.049 127.104 206.31 133.929 204.899 140.504C200.85 159.454 191.267 176.35 177.919 189.425C171.475 195.744 164.144 201.175 156.137 205.503C147.981 209.922 139.126 213.204 129.776 215.143C123.39 216.463 116.775 217.156 110.002 217.156C108.375 217.156 106.76 217.117 105.156 217.037C74.8602 215.547 48.2211 200.163 31.4665 177.13C19.8702 161.182 13.0057 141.561 12.9545 120.348C12.9545 119.899 12.9602 119.455 12.9602 119.006C12.9658 118.636 12.9772 118.266 12.9829 117.902C12.9886 117.578 12.9943 117.254 13.0057 116.93C13.7052 95.1591 21.582 75.1969 34.3385 59.3351C36.7954 56.2811 39.4286 53.3806 42.2324 50.6507C54.5852 38.5937 70.1455 29.8012 87.5144 25.6836C92.394 24.5234 97.4159 23.7386 102.546 23.3462C105.008 23.1585 107.494 23.0618 110.002 23.0618C131.846 23.0618 152.002 30.2789 168.222 42.4553C171.885 45.2023 175.343 48.2052 178.573 51.4355C187.684 60.5351 195.003 71.4319 199.934 83.5571C204.524 94.8406 207.049 107.182 207.049 120.109Z" fill="#1AA5E2"/>
<path d="M152.482 50.1348C151.967 50.1348 151.445 49.9944 150.976 49.7009C147.619 47.5983 144.085 45.7232 140.47 44.128C139.033 43.4938 138.383 41.815 139.017 40.3778C139.651 38.9418 141.328 38.2906 142.767 38.9247C146.63 40.6303 150.407 42.6339 153.994 44.881C155.325 45.7147 155.728 47.4692 154.895 48.8006C154.355 49.6617 153.429 50.1348 152.482 50.1348Z" fill="white"/>
<path d="M165.619 185.345C164.859 185.345 164.102 185.042 163.542 184.444C162.469 183.297 162.529 181.497 163.676 180.425C180.382 164.794 189.964 142.752 189.964 119.95C189.964 97.0166 180.768 75.6712 164.069 59.8447C162.929 58.7641 162.881 56.9647 163.961 55.8244C165.041 54.6846 166.841 54.6363 167.981 55.7163C185.825 72.6274 195.651 95.4389 195.651 119.949C195.651 144.32 185.413 167.876 167.561 184.577C167.013 185.09 166.315 185.345 165.619 185.345Z" fill="white"/>
<path d="M153.658 194.707C152.727 194.707 151.815 194.25 151.27 193.412C150.415 192.094 150.79 190.333 152.107 189.478C153.556 188.538 154.995 187.538 156.386 186.506C157.648 185.569 159.429 185.834 160.365 187.095C161.301 188.356 161.037 190.137 159.775 191.073C158.289 192.176 156.751 193.244 155.204 194.248C154.726 194.559 154.188 194.707 153.658 194.707Z" fill="white"/>
<path d="M94.6468 86.9297H19.7855C18.2152 86.9297 16.9418 85.6563 16.9418 84.0861C16.9418 82.5158 18.2152 81.2424 19.7855 81.2424H94.6462C96.2165 81.2424 97.4898 82.5158 97.4898 84.0861C97.4898 85.6563 96.217 86.9297 94.6468 86.9297Z" fill="white"/>
<path d="M120.808 100.579H57.1103C55.54 100.579 54.2667 99.3057 54.2667 97.7355C54.2667 96.1652 55.54 94.8918 57.1103 94.8918H120.808C122.378 94.8918 123.651 96.1652 123.651 97.7355C123.651 99.3057 122.378 100.579 120.808 100.579Z" fill="white"/>
<path d="M141.282 72.7115H77.5844C76.0142 72.7115 74.7408 71.4382 74.7408 69.8679C74.7408 68.2977 76.0142 67.0243 77.5844 67.0243H141.282C142.852 67.0243 144.125 68.2977 144.125 69.8679C144.125 71.4382 142.852 72.7115 141.282 72.7115Z" fill="white"/>
<path d="M168.305 86.9297H136.732C135.161 86.9297 133.888 85.6563 133.888 84.0861C133.888 82.5158 135.161 81.2424 136.732 81.2424H168.305C169.875 81.2424 171.148 82.5158 171.148 84.0861C171.148 85.6563 169.875 86.9297 168.305 86.9297Z" fill="white"/>
<path d="M207.047 123.897H176.258C174.687 123.897 173.415 122.623 173.415 121.053C173.415 119.483 174.687 118.21 176.258 118.21H207.047C208.618 118.21 209.891 119.483 209.891 121.053C209.891 122.623 208.618 123.897 207.047 123.897Z" fill="white"/>
<path d="M164.884 123.897H98.0585C96.4882 123.897 95.2148 122.623 95.2148 121.053C95.2148 119.483 96.4882 118.21 98.0585 118.21H164.884C166.455 118.21 167.727 119.483 167.727 121.053C167.727 122.623 166.455 123.897 164.884 123.897Z" fill="white"/>
<path d="M126.495 135.271H82.1342C80.564 135.271 79.2906 133.998 79.2906 132.428C79.2906 130.857 80.564 129.584 82.1342 129.584H126.495C128.066 129.584 129.338 130.857 129.338 132.428C129.338 133.998 128.066 135.271 126.495 135.271Z" fill="white"/>
<path d="M178.817 135.271H164.599C163.029 135.271 161.756 133.998 161.756 132.428C161.756 130.857 163.029 129.584 164.599 129.584H178.817C180.388 129.584 181.661 130.857 181.661 132.428C181.661 133.998 180.388 135.271 178.817 135.271Z" fill="white"/>
<path d="M61.6606 123.897H23.556C21.9858 123.897 20.7124 122.623 20.7124 121.053C20.7124 119.483 21.9858 118.21 23.556 118.21H61.6606C63.2309 118.21 64.5042 119.483 64.5042 121.053C64.5042 122.623 63.2309 123.897 61.6606 123.897Z" fill="white"/>
<path d="M85.0659 123.897H76.4469C74.8766 123.897 73.6033 122.623 73.6033 121.053C73.6033 119.483 74.8766 118.21 76.4469 118.21H85.0659C86.6362 118.21 87.9096 119.483 87.9096 121.053C87.9096 122.623 86.6368 123.897 85.0659 123.897Z" fill="white"/>
<path d="M121.376 86.9297H108.864C107.294 86.9297 106.021 85.6563 106.021 84.0861C106.021 82.5158 107.294 81.2424 108.864 81.2424H121.376C122.947 81.2424 124.22 82.5158 124.22 84.0861C124.22 85.6563 122.947 86.9297 121.376 86.9297Z" fill="white"/>
<path d="M166.306 165.414H120.239C118.668 165.414 117.395 164.14 117.395 162.57C117.395 161 118.668 159.727 120.239 159.727H166.306C167.876 159.727 169.149 161 169.149 162.57C169.149 164.14 167.876 165.414 166.306 165.414Z" fill="white"/>
<path d="M82.7035 180.201H44.0301C42.4599 180.201 41.1865 178.927 41.1865 177.357C41.1865 175.787 42.4599 174.513 44.0301 174.513H82.7035C84.2737 174.513 85.5471 175.787 85.5471 177.357C85.5471 178.927 84.2737 180.201 82.7035 180.201Z" fill="white"/>
<path d="M133.888 180.201H95.2148C93.6446 180.201 92.3712 178.927 92.3712 177.357C92.3712 175.787 93.6446 174.513 95.2148 174.513H133.888C135.459 174.513 136.732 175.787 136.732 177.357C136.732 178.927 135.459 180.201 133.888 180.201Z" fill="white"/>
<path d="M107.727 165.414H98.0591C96.4888 165.414 95.2155 164.14 95.2155 162.57C95.2155 161 96.4888 159.727 98.0591 159.727H107.727C109.298 159.727 110.571 161 110.571 162.57C110.571 164.14 109.298 165.414 107.727 165.414Z" fill="white"/>
<path d="M92.3718 48.2563H82.7035C81.1332 48.2563 79.8599 46.983 79.8599 45.4127C79.8599 43.8425 81.1332 42.5691 82.7035 42.5691H92.3718C93.9421 42.5691 95.2154 43.8425 95.2154 45.4127C95.2154 46.983 93.9421 48.2563 92.3718 48.2563Z" fill="white"/>
<path d="M63.2838 161.584C51.1256 161.584 41.9566 156.205 41.9566 149.072C41.9566 141.939 51.1256 136.56 63.2838 136.56C75.442 136.56 84.611 141.939 84.611 149.072C84.611 156.205 75.442 161.584 63.2838 161.584ZM63.2838 142.247C54.3326 142.247 47.6439 145.85 47.6439 149.072C47.6439 152.294 54.3326 155.897 63.2838 155.897C72.235 155.897 78.9237 152.294 78.9237 149.072C78.9237 145.85 72.235 142.247 63.2838 142.247Z" fill="white"/>
<path d="M153.225 151.916H81.7673C80.1971 151.916 78.9237 150.642 78.9237 149.072C78.9237 147.502 80.1971 146.228 81.7673 146.228H153.225C154.796 146.228 156.068 147.502 156.068 149.072C156.068 150.642 154.796 151.916 153.225 151.916Z" fill="white"/>
<path opacity="0.25" d="M129.776 215.143C129.958 215.183 130.14 215.223 130.322 215.263C123.771 216.656 116.969 217.395 110.002 217.395C98.6614 217.395 87.7703 215.45 77.6526 211.873C66.3009 207.863 55.916 201.795 46.9529 194.123C26.6482 176.754 13.6062 151.154 12.9846 122.492C12.9675 121.779 12.9562 121.065 12.9545 120.348C12.9545 119.899 12.9602 119.455 12.9602 119.006C12.9658 118.636 12.9772 118.266 12.9829 117.902C13.6085 92.6852 23.8569 69.8509 40.185 52.9426C40.8675 52.2374 41.5613 51.5436 42.2666 50.8611C42.2552 50.7929 42.2438 50.7246 42.2324 50.6507C54.5852 38.5937 70.1455 29.8012 87.5144 25.6836C87.5883 25.7462 87.6622 25.8088 87.7362 25.877C94.885 24.1993 102.335 23.3007 110.002 23.3007C116.974 23.3007 123.771 24.0457 130.328 25.4448C124.675 26.6505 119.204 28.3396 113.96 30.478C107.647 33.06 101.67 36.2847 96.1078 40.0724C96.5741 42.0686 96.8244 44.1502 96.8244 46.2829C96.8244 61.4565 84.5229 73.758 69.3493 73.758C68.0981 73.758 66.8639 73.667 65.6525 73.5021C57.9804 87.3903 53.6069 103.36 53.6069 120.348C53.6069 149.876 66.7957 176.322 87.6053 194.123C96.5741 201.795 106.959 207.863 118.305 211.873C122.036 213.192 125.858 214.284 129.776 215.143Z" fill="black"/>
<path d="M110 220C54.9201 220 10.1091 175.189 10.1091 120.109C10.1091 65.0292 54.9201 20.2182 110 20.2182C165.08 20.2182 209.891 65.0292 209.891 120.109C209.891 175.19 165.08 220 110 220ZM110 25.9054C58.0561 25.9054 15.7964 68.1651 15.7964 120.109C15.7964 172.053 58.0561 214.313 110 214.313C161.944 214.313 204.204 172.053 204.204 120.109C204.204 68.1651 161.944 25.9054 110 25.9054Z" fill="#333333"/>
<path d="M47.4419 57.7882C62.6144 57.7882 74.9142 45.4884 74.9142 30.3159C74.9142 15.1434 62.6144 2.84363 47.4419 2.84363C32.2694 2.84363 19.9696 15.1434 19.9696 30.3159C19.9696 45.4884 32.2694 57.7882 47.4419 57.7882Z" fill="#F24125"/>
<path opacity="0.25" d="M19.9696 30.3142C19.9696 45.4878 32.2654 57.7893 47.439 57.7893C49.7936 57.7893 52.0855 57.4936 54.2637 56.9362C42.3944 53.8992 33.619 43.1333 33.619 30.3142C33.619 17.4951 42.3944 6.73485 54.2637 3.69785C52.0855 3.1405 49.7936 2.84476 47.439 2.84476C32.2654 2.84476 19.9696 15.1406 19.9696 30.3142Z" fill="black"/>
<path d="M61.238 46.9557C60.5101 46.9557 59.7827 46.6781 59.227 46.1225C58.1163 45.0118 58.1163 43.2117 59.227 42.101C63.1421 38.1859 64.8494 32.5885 63.7945 27.1271C63.4964 25.5852 64.5054 24.0935 66.0472 23.7955C67.5873 23.4963 69.0802 24.5058 69.3782 26.0482C70.7921 33.366 68.5007 40.8703 63.2485 46.1225C62.6934 46.6776 61.9654 46.9557 61.238 46.9557Z" fill="white"/>
<path d="M47.4425 60.6318C30.7259 60.6318 17.1266 47.0319 17.1266 30.3159C17.1266 13.5999 30.7259 0 47.4425 0C64.1585 0 77.7584 13.5999 77.7584 30.3159C77.7584 47.0319 64.1585 60.6318 47.4425 60.6318ZM47.4425 5.68725C33.8619 5.68725 22.8133 16.7359 22.8133 30.3159C22.8133 43.8959 33.8619 54.9445 47.4425 54.9445C61.0231 54.9445 72.0711 43.8959 72.0711 30.3159C72.0711 16.7359 61.0225 5.68725 47.4425 5.68725Z" fill="#333333"/>
<path d="M61.0925 19.8451C60.9048 19.8451 60.7171 19.828 60.5351 19.7882C60.3531 19.7541 60.1768 19.6972 60.0062 19.629C59.8356 19.5551 59.6707 19.4697 59.5114 19.3674C59.3579 19.2593 59.21 19.1456 59.0792 19.0148C58.5503 18.4858 58.2488 17.7522 58.2488 17.0015C58.2488 16.2508 58.5503 15.5228 59.0792 14.9939C59.21 14.8574 59.3579 14.7379 59.5114 14.6356C59.6707 14.5332 59.8356 14.4479 60.0062 14.374C60.1768 14.3057 60.3531 14.2488 60.5351 14.2147C61.4621 14.027 62.446 14.3285 63.1058 14.9939C63.6347 15.5228 63.9361 16.2508 63.9361 17.0015C63.9361 17.7522 63.6347 18.4802 63.1058 19.0148C62.5768 19.5437 61.8432 19.8451 61.0925 19.8451Z" fill="white"/>
</svg>
