<svg width="220" height="220" viewBox="0 0 220 220" fill="none" xmlns="http://www.w3.org/2000/svg">
<path d="M104.664 216.737C48.1234 213.956 3.13135 167.23 3.13135 110C3.13135 53.7349 46.6078 7.63437 101.789 3.44455C104.501 3.23788 107.238 3.13141 110 3.13141C134.055 3.13141 156.251 11.0789 174.112 24.4876C200.072 43.9837 216.869 75.0285 216.869 110C216.869 139.905 204.587 166.935 184.79 186.331C165.52 205.22 139.116 216.869 110 216.869C108.209 216.869 106.43 216.825 104.664 216.737Z" fill="#EAC16E"/>
<path d="M148.615 132.768C148.615 132.768 179.419 112.365 195.251 138.002C211.084 163.64 188.767 200.161 121.956 201.32C73.2072 155.618 81.5862 113.726 110.53 105.347C139.475 96.9677 148.615 132.768 148.615 132.768Z" fill="#EFD4A5"/>
<path d="M148.613 135.9C147.216 135.9 145.942 134.959 145.581 133.543C145.567 133.486 143.975 127.41 140.165 121.131C139.268 119.652 139.74 117.726 141.218 116.83C142.698 115.932 144.624 116.404 145.52 117.883C149.833 124.993 151.578 131.712 151.65 131.994C152.077 133.67 151.065 135.375 149.391 135.803C149.13 135.869 148.869 135.9 148.613 135.9Z" fill="#333333"/>
<path d="M99.7828 113.813C98.8358 113.813 97.9008 113.386 97.2851 112.574C96.2405 111.196 96.5104 109.232 97.8882 108.187C101.342 105.568 105.302 103.601 109.66 102.34C119.816 99.4002 128.854 101.064 136.529 107.286C137.873 108.375 138.079 110.347 136.989 111.69C135.9 113.034 133.926 113.239 132.585 112.151C126.597 107.296 119.47 106.019 111.402 108.356C107.784 109.403 104.511 111.025 101.673 113.178C101.107 113.606 100.442 113.813 99.7828 113.813Z" fill="#333333"/>
<path d="M89.8976 126.68C89.4955 126.68 89.0878 126.602 88.6945 126.438C87.0981 125.773 86.3428 123.94 87.0086 122.343C87.6555 120.79 88.4127 119.281 89.2588 117.858C90.1419 116.372 92.0633 115.883 93.5513 116.766C95.0375 117.65 95.526 119.571 94.6423 121.058C93.9471 122.228 93.324 123.471 92.7898 124.751C92.2887 125.955 91.1239 126.68 89.8976 126.68Z" fill="#333333"/>
<path d="M121.956 204.452C121.161 204.452 120.396 204.149 119.814 203.605C86.3623 172.244 83.0956 146.821 84.1258 134.458C84.2692 132.735 85.7836 131.454 87.5059 131.597C89.2294 131.741 90.5101 133.254 90.3661 134.978C88.7947 153.84 100.74 176.818 123.173 198.163C127.744 198.051 132.208 197.765 136.46 197.31C138.182 197.124 139.723 198.373 139.906 200.092C140.09 201.812 138.845 203.354 137.125 203.538C132.296 204.054 127.211 204.361 122.011 204.451C121.992 204.451 121.974 204.452 121.956 204.452Z" fill="#333333"/>
<path d="M149.455 201.615C147.997 201.615 146.692 200.592 146.389 199.108C146.044 197.413 147.138 195.76 148.833 195.415C171.846 190.726 188.525 179.995 194.59 165.973C198.377 157.221 197.665 147.872 192.587 139.648C188.931 133.727 184.088 130.065 178.192 128.762C165.004 125.849 150.486 135.285 150.341 135.381C148.896 136.333 146.956 135.934 146.004 134.493C145.051 133.052 145.444 131.112 146.885 130.157C147.564 129.707 163.719 119.17 179.509 122.64C187.136 124.316 193.329 128.931 197.915 136.357C204.101 146.373 204.962 157.774 200.338 168.46C193.448 184.387 175.131 196.447 150.083 201.551C149.872 201.594 149.662 201.615 149.455 201.615Z" fill="#333333"/>
<path opacity="0.25" d="M119.147 211.052C106.647 206.637 95.211 199.955 85.3408 191.506C62.4251 171.904 47.9017 142.781 47.9017 110.265C47.9017 81.431 59.325 55.2587 77.888 36.0381C88.1152 25.4477 100.509 16.9616 114.356 11.3C120.131 8.94205 126.159 7.08012 132.386 5.75303C125.165 4.21363 117.679 3.39633 109.999 3.39633C95.6951 3.39633 82.0547 6.20833 69.5854 11.3C55.7383 16.9616 43.3442 25.4477 33.1171 36.0381C14.5541 55.2587 3.13074 81.431 3.13074 110.265C3.13074 142.781 17.6542 171.904 40.5698 191.506C50.44 199.955 61.8759 206.637 74.3765 211.052C85.518 214.992 97.5113 217.134 109.999 217.134C117.674 217.134 125.16 216.319 132.379 214.781C127.856 213.817 123.438 212.57 119.147 211.052Z" fill="black"/>
<path d="M156.781 32.9436C156.213 32.9436 155.638 32.7896 155.122 32.4658C151.425 30.1504 147.533 28.0856 143.552 26.3289C141.971 25.6306 141.254 23.7818 141.952 22.1998C142.651 20.6184 144.497 19.9007 146.082 20.5996C150.336 22.4772 154.496 24.6842 158.446 27.1587C159.912 28.0768 160.356 30.0089 159.437 31.475C158.843 32.4232 157.823 32.9436 156.781 32.9436Z" fill="white"/>
<path d="M171.247 181.838C170.41 181.838 169.576 181.504 168.959 180.846C167.778 179.582 167.844 177.601 169.107 176.42C187.504 159.208 198.055 134.935 198.055 109.825C198.055 84.5711 187.928 61.0655 169.539 43.6374C168.284 42.4481 168.231 40.4659 169.421 39.2108C170.61 37.9558 172.592 37.9025 173.848 39.0925C193.497 57.7149 204.318 82.8351 204.318 109.826C204.318 136.663 193.044 162.603 173.385 180.994C172.782 181.558 172.013 181.838 171.247 181.838Z" fill="white"/>
<path d="M158.075 192.147C157.05 192.147 156.045 191.645 155.445 190.721C154.504 189.27 154.916 187.331 156.367 186.389C157.961 185.355 159.547 184.253 161.079 183.116C162.469 182.085 164.43 182.376 165.46 183.765C166.491 185.154 166.201 187.115 164.811 188.145C163.174 189.36 161.48 190.537 159.777 191.643C159.251 191.984 158.659 192.147 158.075 192.147Z" fill="white"/>
<path d="M110 220C108.164 220 106.317 219.954 104.51 219.865C45.9064 216.983 0 168.724 0 110C0 82.0892 10.4683 55.4747 29.4753 35.0605C48.3827 14.7527 73.9807 2.41557 101.551 0.322535C104.356 0.108347 107.198 0 110 0C134.015 0 156.835 7.6018 175.992 21.9831C189.357 32.0199 200.429 45.1711 208.014 60.0159C215.967 75.5821 220 92.3996 220 110C220 139.805 208.274 167.707 186.982 188.568C166.303 208.837 138.964 220 110 220ZM110 6.26281C107.356 6.26281 104.674 6.36552 102.027 6.56656C76.0293 8.54059 51.8918 20.175 34.0597 39.3279C16.1343 58.5792 6.26281 83.678 6.26281 110C6.26281 165.381 49.5532 210.892 104.818 213.609H104.819C106.524 213.694 108.266 213.737 109.999 213.737C137.313 213.737 163.096 203.21 182.598 184.095C202.678 164.421 213.737 138.107 213.737 109.999C213.737 93.3992 209.935 77.5405 202.437 62.8648C195.283 48.8643 184.838 36.459 172.232 26.9908C154.167 13.4306 132.648 6.26281 110 6.26281Z" fill="#333333"/>
</svg>
