<svg width="220" height="220" viewBox="0 0 220 220" fill="none" xmlns="http://www.w3.org/2000/svg">
<g clip-path="url(#clip0_11_1722)">
<path d="M110 216.711C168.935 216.711 216.711 168.935 216.711 110C216.711 51.0654 168.935 3.28918 110 3.28918C51.0649 3.28918 3.2887 51.0654 3.2887 110C3.2887 168.935 51.0649 216.711 110 216.711Z" fill="#F9DEA0"/>
<path d="M110 207.59C163.897 207.59 207.59 163.898 207.59 110C207.59 56.1029 163.897 12.4105 110 12.4105C56.1024 12.4105 12.41 56.1029 12.41 110C12.41 163.898 56.1024 207.59 110 207.59Z" fill="#FCBC1D"/>
<path d="M110 197.045C158.073 197.045 197.045 158.074 197.045 110C197.045 61.9267 158.073 22.9554 110 22.9554C61.9262 22.9554 22.9549 61.9267 22.9549 110C22.9549 158.074 61.9262 197.045 110 197.045Z" fill="#F24125"/>
<path d="M164.335 166.887C163.683 166.887 163.03 166.638 162.532 166.14C161.535 165.144 161.535 163.529 162.532 162.533C187.364 137.701 191.362 98.4117 172.037 69.1115C171.261 67.9357 171.586 66.3539 172.762 65.578C173.939 64.8022 175.521 65.1276 176.295 66.3029C196.947 97.6159 192.676 139.603 166.139 166.14C165.641 166.638 164.988 166.887 164.335 166.887Z" fill="white"/>
<path d="M168.249 62.4276C167.532 62.4276 166.82 62.1276 166.316 61.542C165.112 60.1454 163.84 58.7747 162.532 57.4678C161.536 56.4721 161.536 54.8571 162.532 53.8608C163.528 52.8646 165.143 52.8646 166.139 53.8608C167.535 55.2565 168.895 56.7205 170.18 58.2121C171.099 59.2792 170.98 60.8896 169.913 61.8093C169.431 62.2246 168.839 62.4276 168.249 62.4276Z" fill="white"/>
<path d="M47.0518 156.634C46.2479 156.634 45.4577 156.255 44.9609 155.547C34.3833 140.459 29.3929 121.96 30.9095 103.46C32.4433 84.7413 40.5939 67.1267 53.8597 53.8608C54.856 52.8646 56.4705 52.8646 57.4667 53.8608C58.463 54.8571 58.463 56.4721 57.4667 57.4678C45.0548 69.8792 37.4291 86.3609 35.9932 103.876C34.5741 121.193 39.2421 138.503 49.1377 152.619C49.9462 153.772 49.6666 155.363 48.5133 156.171C48.0685 156.484 47.5573 156.634 47.0518 156.634Z" fill="white"/>
<path d="M55.6641 166.887C55.0111 166.887 54.3587 166.638 53.8608 166.14C52.8967 165.176 51.9444 164.174 51.0302 163.161C50.086 162.115 50.1687 160.503 51.2144 159.559C52.2601 158.615 53.8726 158.697 54.8168 159.743C55.6732 160.691 56.5649 161.63 57.4673 162.533C58.4635 163.529 58.4635 165.144 57.4673 166.14C56.9694 166.638 56.3165 166.887 55.6641 166.887Z" fill="white"/>
<path d="M198.193 51.2328C197.387 51.2328 196.595 50.8517 196.099 50.1411C176.431 21.9388 144.244 5.10163 110 5.10163C105.402 5.10163 100.774 5.40362 96.2457 5.99942C94.8501 6.18306 93.5677 5.20008 93.3845 3.80341C93.2009 2.40673 94.1844 1.12585 95.5811 0.942209C100.329 0.317326 105.18 0.000549316 110 0.000549316C145.911 0.000549316 179.662 17.6539 200.283 47.2228C201.089 48.3782 200.806 49.9682 199.65 50.7737C199.206 51.0838 198.697 51.2328 198.193 51.2328Z" fill="#333333"/>
<path d="M78.6311 9.77168C77.5389 9.77168 76.5289 9.06518 76.1933 7.96641C75.7811 6.61921 76.5391 5.19346 77.8863 4.78129C80.4297 4.00338 83.0348 3.31065 85.6293 2.72147C87.002 2.41031 88.369 3.27035 88.6812 4.64407C88.9929 6.01779 88.1323 7.38437 86.7586 7.69605C84.2861 8.25768 81.8029 8.91827 79.3784 9.65946C79.1295 9.73546 78.878 9.77168 78.6311 9.77168Z" fill="#333333"/>
<path d="M30.7218 185.005C30.0311 185.005 29.3419 184.725 28.839 184.176C10.242 163.844 0 137.502 0 110C0 87.8891 6.56254 66.5513 18.9781 48.2945C31.0936 30.4785 47.9655 16.6933 67.7689 8.42954C69.0687 7.8873 70.5628 8.50147 71.105 9.80122C71.6472 11.1015 71.0336 12.5951 69.7338 13.1373C50.8461 21.0185 34.7537 34.1676 23.1967 51.1628C11.3586 68.5708 5.10108 88.9159 5.10108 110C5.10108 136.224 14.8681 161.344 32.6031 180.733C33.5539 181.773 33.482 183.386 32.4424 184.337C31.9532 184.784 31.3365 185.005 30.7218 185.005Z" fill="#333333"/>
<path d="M110 220C83.5731 220 58.009 210.452 38.0168 193.114C36.9528 192.191 36.838 190.58 37.7613 189.516C38.6841 188.452 40.2955 188.338 41.3591 189.26C60.4239 205.794 84.8009 214.899 110 214.899C167.841 214.899 214.899 167.841 214.899 110C214.899 93.8008 211.289 78.2588 204.169 63.8054C203.547 62.5419 204.067 61.0125 205.33 60.3902C206.594 59.7679 208.123 60.2877 208.745 61.5512C216.213 76.7116 220 93.0121 220 110C220 170.654 170.654 220 110 220Z" fill="#333333"/>
<path d="M157.435 197.427C156.542 197.427 155.676 196.957 155.208 196.124C154.518 194.896 154.956 193.341 156.184 192.652C186.107 175.863 204.696 144.193 204.696 110.001C204.696 105.329 204.351 100.634 203.671 96.0453C203.464 94.6522 204.426 93.355 205.82 93.1484C207.21 92.9418 208.51 93.9033 208.716 95.2969C209.434 100.132 209.797 105.079 209.797 110.001C209.797 146.035 190.211 179.41 158.681 197.1C158.286 197.321 157.858 197.427 157.435 197.427Z" fill="#333333"/>
<path d="M204.189 88.3196C203.053 88.3196 202.017 87.555 201.721 86.4042C196.582 66.4426 184.764 48.3782 168.442 35.5393C151.613 22.3009 131.404 15.3038 110 15.3038C91.0564 15.3038 72.7618 20.9032 57.0944 31.4972C55.9278 32.2863 54.3418 31.9797 53.5527 30.8131C52.7636 29.646 53.0701 28.0606 54.2368 27.2714C70.7515 16.1052 90.0336 10.2027 110 10.2027C132.56 10.2027 153.859 17.5778 171.596 31.5298C188.793 45.0569 201.245 64.0931 206.661 85.1325C207.012 86.4965 206.191 87.8871 204.827 88.238C204.614 88.2931 204.399 88.3196 204.189 88.3196Z" fill="#333333"/>
<path d="M41.0908 43.9968C40.4404 43.9968 39.7895 43.7494 39.2921 43.2541C38.2933 42.2604 38.2893 40.6454 39.2829 39.6472C40.9826 37.9388 42.7655 36.2718 44.5819 34.692C45.6445 33.7676 47.2559 33.8799 48.1802 34.9424C49.1051 36.005 48.9923 37.6164 47.9298 38.5407C46.2056 40.0404 44.5131 41.6228 42.8996 43.2449C42.4002 43.7459 41.7452 43.9968 41.0908 43.9968Z" fill="#333333"/>
<path d="M110 209.798C54.9713 209.798 10.2021 165.028 10.2021 110C10.2021 87.1632 18.1466 64.8256 32.5719 47.1009C33.461 46.0082 35.0674 45.8435 36.16 46.7326C37.2527 47.6217 37.4174 49.228 36.5283 50.3207C22.8411 67.1384 15.3032 88.3329 15.3032 110C15.3032 162.216 57.7835 204.697 110 204.697C123.221 204.697 136.02 202.012 148.042 196.718C149.33 196.15 150.836 196.734 151.404 198.024C151.971 199.313 151.387 200.818 150.097 201.386C137.424 206.967 123.933 209.798 110 209.798Z" fill="#333333"/>
<path d="M22.9548 112.551C21.5464 112.551 20.4043 111.409 20.4043 110C20.4043 85.3304 30.2203 62.345 48.0445 45.2783C49.0622 44.304 50.6767 44.3392 51.6505 45.3563C52.6248 46.374 52.5896 47.9885 51.5724 48.9623C34.7628 65.0582 25.5054 86.7348 25.5054 110C25.5054 111.409 24.3632 112.551 22.9548 112.551Z" fill="#333333"/>
<path d="M110 199.596C88.2161 199.596 67.2185 191.684 50.8752 177.319C34.6818 163.085 24.1577 143.543 21.2409 122.291C21.0496 120.896 22.0255 119.609 23.4211 119.418C24.8142 119.227 26.1033 120.202 26.2946 121.598C29.0446 141.635 38.9697 160.063 54.2429 173.487C69.6548 187.034 89.4567 194.495 110 194.495C122.793 194.495 135.081 191.709 146.524 186.215C147.794 185.605 149.318 186.141 149.927 187.41C150.537 188.68 150.001 190.204 148.732 190.813C136.594 196.641 123.563 199.596 110 199.596Z" fill="#333333"/>
<path d="M155.317 186.885C154.458 186.885 153.619 186.451 153.139 185.664C152.404 184.462 152.784 182.892 153.985 182.158C156.239 180.782 158.454 179.281 160.571 177.697C161.698 176.853 163.297 177.083 164.141 178.211C164.985 179.339 164.755 180.937 163.627 181.781C161.383 183.46 159.034 185.052 156.645 186.511C156.229 186.764 155.77 186.885 155.317 186.885Z" fill="#333333"/>
<path d="M169.931 175.679C169.256 175.679 168.582 175.412 168.081 174.884C167.111 173.863 167.153 172.249 168.175 171.279C185.147 155.16 194.494 133.398 194.494 110C194.494 63.41 156.59 25.5059 110 25.5059C92.4862 25.5059 75.6869 30.8151 61.4181 40.8602C60.2663 41.6713 58.6752 41.3948 57.8642 40.243C57.0531 39.0911 57.3296 37.5001 58.4814 36.689C73.6148 26.0359 91.4293 20.4048 110 20.4048C159.403 20.4048 199.595 60.5973 199.595 110C199.595 134.81 189.684 157.887 171.687 174.978C171.194 175.446 170.562 175.679 169.931 175.679Z" fill="#333333"/>
</g>
<defs>
<clipPath id="clip0_11_1722">
<rect width="220" height="220" fill="white"/>
</clipPath>
</defs>
</svg>
