<svg width="220" height="220" viewBox="0 0 220 220" fill="none" xmlns="http://www.w3.org/2000/svg">
<path d="M205.011 122.206C205.011 148.792 194.093 172.823 176.493 190.067C163.748 202.561 147.495 211.487 129.349 215.239C123.102 216.537 116.632 217.216 110.001 217.216C108.408 217.216 106.827 217.177 105.257 217.099C55.7752 214.666 16.2433 174.371 15.0183 124.583C14.996 123.87 14.9905 123.158 14.9905 122.439C14.9905 122.039 14.9905 121.638 14.996 121.242C15.2577 94.6613 26.4381 70.6971 44.2609 53.6092C56.9 41.4935 72.8854 32.8355 90.6915 29.1662C94.6112 28.3533 98.6201 27.7854 102.701 27.4736C105.112 27.2898 107.545 27.1952 110.001 27.1952C131.387 27.1952 151.12 34.2608 166.999 46.1817C190.078 63.5145 205.011 91.1145 205.011 122.206Z" fill="#1AA5E2"/>
<path d="M151.589 53.7001C151.085 53.7001 150.574 53.5625 150.114 53.2752C146.828 51.2168 143.368 49.3811 139.829 47.8193C138.423 47.1984 137.786 45.5548 138.407 44.1478C139.028 42.7419 140.669 42.1044 142.078 42.7252C145.86 44.395 149.558 46.3566 153.07 48.5565C154.373 49.3727 154.767 51.0904 153.951 52.3938C153.423 53.2368 152.516 53.7001 151.589 53.7001Z" fill="white"/>
<path d="M164.45 186.072C163.706 186.072 162.964 185.776 162.416 185.19C161.366 184.067 161.425 182.305 162.547 181.255C178.903 165.953 188.284 144.374 188.284 122.05C188.284 99.5978 179.28 78.7004 162.932 63.2061C161.816 62.1482 161.769 60.3865 162.827 59.2702C163.884 58.1544 165.646 58.1065 166.762 59.1644C184.231 75.7205 193.852 98.0533 193.852 122.049C193.852 145.908 183.828 168.97 166.351 185.32C165.815 185.823 165.131 186.072 164.45 186.072Z" fill="white"/>
<path d="M152.74 195.238C151.829 195.238 150.936 194.791 150.403 193.97C149.565 192.68 149.932 190.956 151.222 190.118C152.644 189.195 154.054 188.216 155.412 187.208C156.647 186.291 158.39 186.55 159.306 187.785C160.223 189.02 159.964 190.763 158.73 191.68C157.279 192.756 155.772 193.802 154.253 194.788C153.785 195.093 153.259 195.238 152.74 195.238Z" fill="white"/>
<path d="M58.2207 74.0462H46.5287C44.9908 74.0462 43.7448 72.7996 43.7448 71.2623C43.7448 69.725 44.9908 68.4783 46.5287 68.4783H58.2207C59.7586 68.4783 61.0046 69.725 61.0046 71.2623C61.0046 72.7996 59.7586 74.0462 58.2207 74.0462Z" fill="#B4CBF9"/>
<path d="M104.989 98.2654H93.2969C91.759 98.2654 90.5129 97.0187 90.5129 95.4815C90.5129 93.9442 91.759 92.6975 93.2969 92.6975H104.989C106.527 92.6975 107.773 93.9442 107.773 95.4815C107.773 97.0187 106.527 98.2654 104.989 98.2654Z" fill="#B4CBF9"/>
<path d="M173.47 98.2654H161.778C160.241 98.2654 158.995 97.0187 158.995 95.4815C158.995 93.9442 160.241 92.6975 161.778 92.6975H173.47C175.008 92.6975 176.254 93.9442 176.254 95.4815C176.254 97.0187 175.008 98.2654 173.47 98.2654Z" fill="#B4CBF9"/>
<path d="M133.443 174.632H125.277C123.739 174.632 122.493 173.385 122.493 171.848C122.493 170.311 123.739 169.064 125.277 169.064H133.443C134.981 169.064 136.227 170.311 136.227 171.848C136.227 173.385 134.98 174.632 133.443 174.632Z" fill="#B4CBF9"/>
<path d="M123.192 140.208H115.026C113.489 140.208 112.243 138.961 112.243 137.424C112.243 135.886 113.489 134.64 115.026 134.64H123.192C124.73 134.64 125.976 135.886 125.976 137.424C125.976 138.961 124.73 140.208 123.192 140.208Z" fill="#B4CBF9"/>
<path d="M87.2657 175.934H79.0993C77.5614 175.934 76.3153 174.687 76.3153 173.15C76.3153 171.612 77.5614 170.366 79.0993 170.366H87.2657C88.8035 170.366 90.0496 171.612 90.0496 173.15C90.0496 174.687 88.8035 175.934 87.2657 175.934Z" fill="#B4CBF9"/>
<path d="M79.1923 166.747H60.8182C59.2804 166.747 58.0343 165.5 58.0343 163.963C58.0343 162.425 59.2804 161.179 60.8182 161.179H79.1923C80.7301 161.179 81.9762 162.425 81.9762 163.963C81.9762 165.5 80.7301 166.747 79.1923 166.747Z" fill="#B4CBF9"/>
<path d="M48.031 166.747H43.0193C41.4814 166.747 40.2354 165.5 40.2354 163.963C40.2354 162.425 41.4814 161.179 43.0193 161.179H48.031C49.5688 161.179 50.8149 162.425 50.8149 163.963C50.8149 165.5 49.5688 166.747 48.031 166.747Z" fill="#B4CBF9"/>
<path d="M92.4617 108.287H86.6727C85.1349 108.287 83.8888 107.04 83.8888 105.503C83.8888 103.966 85.1349 102.719 86.6727 102.719H92.4617C93.9995 102.719 95.2456 103.966 95.2456 105.503C95.2456 107.04 93.9995 108.287 92.4617 108.287Z" fill="#B4CBF9"/>
<path opacity="0.25" d="M129.349 215.239C129.533 215.284 129.711 215.323 129.895 215.362C123.481 216.726 116.822 217.45 110.001 217.45C98.8985 217.45 88.236 215.546 78.3307 212.043C67.2172 208.118 57.0503 202.177 48.2753 194.666C28.4091 177.673 15.6364 152.629 15.0183 124.583C14.996 123.87 14.9905 123.158 14.9905 122.439C14.9905 122.039 14.9905 121.638 14.996 121.242C15.3078 96.0811 25.4024 73.2695 41.6495 56.4489C42.5181 55.5525 43.409 54.6727 44.311 53.8097C44.2943 53.7429 44.272 53.6761 44.2609 53.6093C56.9 41.4936 72.8854 32.8355 90.6915 29.1663C90.7527 29.2331 90.8084 29.2999 90.8641 29.3667C97.0444 28.1028 103.442 27.4291 110.001 27.4291C116.827 27.4291 123.481 28.1585 129.901 29.5282C124.366 30.7086 119.004 32.3622 113.871 34.4557C107.896 36.9001 102.228 39.9401 96.9331 43.4924C97.05 44.5114 97.1224 45.547 97.1224 46.5993C97.1224 61.4544 85.079 73.4978 70.2239 73.4978C69.6114 73.4978 69.0045 73.4699 68.4032 73.431C59.7674 87.7404 54.7897 104.511 54.7897 122.439C54.7897 151.348 67.7017 177.239 88.0745 194.666C96.8495 202.177 107.016 208.118 118.13 212.043C121.777 213.335 125.519 214.404 129.349 215.239Z" fill="black"/>
<path d="M109.999 220C108.368 220 106.726 219.959 105.119 219.88C53.0175 217.317 12.2054 174.414 12.2054 122.206C12.2054 97.3918 21.5122 73.7305 38.4101 55.5814C55.2202 37.527 77.9772 26.5588 102.489 24.6981C104.983 24.5082 107.509 24.4119 109.999 24.4119C131.35 24.4119 151.638 31.1702 168.669 43.9557C180.551 52.8794 190.395 64.5708 197.138 77.7684C204.208 91.6079 207.794 106.559 207.794 122.206C207.794 148.703 197.369 173.51 178.439 192.056C160.055 210.076 135.749 220 109.999 220ZM109.999 29.9792C107.65 29.9792 105.265 30.0699 102.912 30.2498C79.7985 32.0048 58.3387 42.3483 42.4853 59.3754C26.55 76.4911 17.7733 98.8044 17.7733 122.206C17.7733 171.441 56.2602 211.902 105.393 214.319H105.394C106.911 214.394 108.46 214.432 109.999 214.432C134.282 214.432 157.204 205.073 174.542 188.079C192.395 170.588 202.226 147.194 202.226 122.206C202.226 107.447 198.846 93.3484 192.18 80.3012C185.82 67.8536 176.534 56.8253 165.326 48.4078C149.267 36.3522 130.135 29.9792 109.999 29.9792Z" fill="#333333"/>
<path d="M45.1958 56.5753C60.0499 56.5753 72.0915 44.5337 72.0915 29.6796C72.0915 14.8255 60.0499 2.78394 45.1958 2.78394C30.3418 2.78394 18.3002 14.8255 18.3002 29.6796C18.3002 44.5337 30.3418 56.5753 45.1958 56.5753Z" fill="#F7DB9C"/>
<path opacity="0.25" d="M18.3002 29.678C18.3002 44.5331 30.3379 56.5765 45.1931 56.5765C47.4982 56.5765 49.742 56.2869 51.8745 55.7413C40.2543 52.768 31.6631 42.228 31.6631 29.678C31.6631 17.128 40.2543 6.59353 51.8745 3.62028C49.742 3.07463 47.4982 2.7851 45.1931 2.7851C30.3379 2.7851 18.3002 14.8229 18.3002 29.678Z" fill="black"/>
<path d="M45.1958 59.3592C28.8301 59.3592 15.5156 46.0448 15.5156 29.6796C15.5162 13.3145 28.8307 0 45.1958 0C61.5609 0 74.8754 13.3145 74.8754 29.6796C74.8754 46.0453 61.5615 59.3592 45.1958 59.3592ZM45.1958 5.56789C31.9002 5.56789 21.0835 16.3846 21.0835 29.6796C21.0835 42.9752 31.9002 53.7914 45.1958 53.7914C58.4908 53.7914 69.3075 42.9746 69.3075 29.6796C69.3075 16.3846 58.4908 5.56789 45.1958 5.56789Z" fill="#333333"/>
<path d="M38.5271 26.9875C38.3434 26.9875 38.1596 26.9708 37.9815 26.9318C37.8038 26.8984 37.6307 26.8428 37.4636 26.7759C37.291 26.7036 37.1296 26.62 36.9792 26.5198C36.8289 26.4196 36.6841 26.3027 36.5561 26.1746C36.428 26.0466 36.3111 25.9018 36.2109 25.7515C36.1106 25.6011 36.0271 25.4397 35.9547 25.267C35.8879 25.1 35.8322 24.9274 35.7988 24.7492C35.7604 24.5711 35.7432 24.3873 35.7432 24.2036C35.7432 23.4742 36.0383 22.7559 36.5561 22.2381C36.6836 22.1101 36.8289 21.9931 36.9792 21.8929C37.1301 21.7927 37.2916 21.7036 37.4636 21.6368C37.6307 21.5644 37.8033 21.5143 37.9815 21.4753C38.8835 21.2916 39.8473 21.5922 40.4931 22.2381C41.0109 22.7559 41.3116 23.4742 41.3116 24.2036C41.3116 24.3873 41.2893 24.5711 41.2559 24.7492C41.222 24.9274 41.1668 25.1 41.0945 25.267C41.0276 25.4397 40.9386 25.6011 40.8383 25.7515C40.7376 25.9018 40.6206 26.0466 40.4931 26.1746C39.9748 26.6924 39.2559 26.9875 38.5271 26.9875Z" fill="#333333"/>
<path d="M42.4246 44.248C42.2408 44.248 42.0571 44.2313 41.8789 44.1923C41.7013 44.1589 41.5281 44.1032 41.3611 44.0364C41.1885 43.964 41.027 43.8805 40.8767 43.7803C40.7264 43.6801 40.5816 43.5631 40.4535 43.4351C39.9357 42.9173 39.6406 42.199 39.6406 41.4641C39.6406 40.7347 39.9357 40.0164 40.4535 39.4986C40.581 39.3705 40.7264 39.2536 40.8767 39.1534C41.0276 39.0532 41.1891 38.9641 41.3611 38.8973C41.5281 38.8249 41.7007 38.7748 41.8789 38.7358C42.7809 38.5576 43.7447 38.8527 44.3906 39.4986C44.9084 40.0164 45.2091 40.7347 45.2091 41.4641C45.2091 42.199 44.9084 42.9173 44.3906 43.4351C44.2625 43.5631 44.1233 43.6801 43.9669 43.7803C43.8165 43.8805 43.6551 43.964 43.4886 44.0364C43.3216 44.1032 43.1434 44.1589 42.9702 44.1923C42.7865 44.2313 42.6027 44.248 42.4246 44.248Z" fill="#333333"/>
<path d="M48.8276 25.0388C48.0927 25.0388 47.3744 24.7437 46.8566 24.2259C46.7286 24.0978 46.6116 23.9531 46.5114 23.8027C46.4112 23.6524 46.3277 23.4909 46.2553 23.3239C46.1885 23.1513 46.1328 22.9787 46.0994 22.8005C46.061 22.6223 46.0437 22.4386 46.0437 22.2549C46.0437 22.0767 46.0604 21.8929 46.0994 21.7148C46.1333 21.5366 46.1885 21.3584 46.2553 21.1914C46.3277 21.0244 46.4112 20.8629 46.5114 20.7125C46.6116 20.5566 46.7286 20.4175 46.8566 20.2894C47.5025 19.6435 48.4657 19.3428 49.3677 19.5266C49.5459 19.56 49.7246 19.6157 49.8911 19.6881C50.0582 19.7549 50.2196 19.8384 50.3694 19.9442C50.5253 20.0444 50.6645 20.1613 50.7931 20.2894C50.9206 20.4175 51.0375 20.5566 51.1383 20.7125C51.2436 20.8629 51.3276 21.0244 51.3944 21.1914C51.4668 21.3584 51.5219 21.5366 51.5559 21.7148C51.5943 21.8929 51.6116 22.0767 51.6116 22.2549C51.6116 22.4386 51.5949 22.6223 51.5559 22.8005C51.5219 22.9787 51.4668 23.1513 51.3944 23.3239C51.3276 23.4909 51.2436 23.6524 51.1383 23.8027C51.0375 23.9531 50.9206 24.0978 50.7931 24.2259C50.665 24.3539 50.5259 24.4709 50.3694 24.5711C50.2191 24.6713 50.0576 24.7548 49.8911 24.8272C49.7241 24.894 49.5459 24.9497 49.3677 24.9831C49.1896 25.0221 49.0058 25.0388 48.8276 25.0388Z" fill="#333333"/>
<path d="M57.8956 45.4567C57.1835 45.4567 56.4702 45.185 55.9274 44.6416C54.84 43.5542 54.84 41.792 55.9274 40.7045C59.7597 36.8716 61.4318 31.3911 60.3984 26.0449C60.1072 24.5354 61.0938 23.0749 62.6038 22.7832C64.1133 22.4909 65.5737 23.4786 65.8649 24.9886C67.2491 32.1528 65.0058 39.4997 59.8639 44.6416C59.321 45.185 58.6078 45.4567 57.8956 45.4567Z" fill="white"/>
<path d="M57.8981 18.4464C57.7144 18.4464 57.5306 18.4241 57.3525 18.3907C57.1749 18.3517 56.9961 18.3016 56.8297 18.2292C56.6626 18.1624 56.5011 18.0733 56.3508 17.9731C56.2005 17.8729 56.0557 17.756 55.9277 17.6279C55.7996 17.4999 55.6827 17.3551 55.5824 17.2048C55.4822 17.0544 55.3931 16.893 55.3263 16.7259C55.2539 16.5589 55.2038 16.3807 55.1649 16.2025C55.1314 16.0244 55.1147 15.8406 55.1147 15.6624C55.1147 15.4787 55.1314 15.295 55.1649 15.1168C55.2038 14.9386 55.2539 14.766 55.3263 14.5934C55.3931 14.4264 55.4822 14.2649 55.5824 14.1146C55.6827 13.9642 55.7996 13.8195 55.9277 13.6914C56.0552 13.5634 56.2005 13.4464 56.3508 13.3462C56.5017 13.246 56.6632 13.1569 56.8297 13.0901C56.9967 13.0177 57.1749 12.9676 57.3525 12.9286C57.7094 12.8562 58.0824 12.8562 58.4382 12.9286C58.6164 12.9676 58.7951 13.0177 58.9616 13.0901C59.1286 13.1569 59.2901 13.246 59.4399 13.3462C59.5908 13.4464 59.735 13.5634 59.8636 13.6914C59.9911 13.8195 60.108 13.9642 60.2082 14.1146C60.309 14.2649 60.3981 14.4264 60.4649 14.5934C60.5373 14.766 60.5874 14.9386 60.6258 15.1168C60.6598 15.295 60.6821 15.4787 60.6821 15.6624C60.6821 15.8406 60.6598 16.0244 60.6258 16.2025C60.5874 16.3807 60.5373 16.5589 60.4649 16.7259C60.3981 16.893 60.309 17.0544 60.2082 17.2048C60.108 17.3551 59.9911 17.4999 59.8636 17.6279C59.7355 17.756 59.5908 17.8729 59.4399 17.9731C59.2895 18.0733 59.1281 18.1624 58.9616 18.2292C58.7946 18.3016 58.6164 18.3517 58.4382 18.3907C58.2595 18.4247 58.0763 18.4464 57.8981 18.4464Z" fill="white"/>
</svg>
