<svg width="220" height="220" viewBox="0 0 220 220" fill="none" xmlns="http://www.w3.org/2000/svg">
<path d="M185.511 34.3766C195.544 44.3971 203.604 56.3966 209.034 69.7489C214.088 82.1743 216.869 95.7646 216.869 110C216.869 117.703 216.054 125.219 214.501 132.458C210.042 153.326 199.489 171.933 184.79 186.331C177.695 193.289 169.622 199.27 160.804 204.036C145.692 212.222 128.388 216.869 110 216.869C108.209 216.869 106.43 216.825 104.664 216.737C71.302 215.096 41.967 198.155 23.5168 172.791C10.6968 155.161 3.13135 133.46 3.13135 110C3.13135 108.829 3.15014 107.664 3.18771 106.499C3.95804 82.5251 12.632 60.5426 26.6795 43.0756C44.66 20.7174 71.4586 5.74926 101.789 3.44455C104.501 3.23788 107.238 3.13141 110 3.13141C134.055 3.13141 156.251 11.0789 174.112 24.4876C178.146 27.5125 181.953 30.8193 185.511 34.3766Z" fill="#F9911E"/>
<path d="M86.5507 70.9232H80.0574C78.3283 70.9232 76.926 69.521 76.926 67.7918C76.926 66.0626 78.3283 64.6604 80.0574 64.6604H86.5507C88.2799 64.6604 89.6821 66.0626 89.6821 67.7918C89.6821 69.521 88.2805 70.9232 86.5507 70.9232Z" fill="white"/>
<path d="M33.1598 70.9232H29.9125C28.1834 70.9232 26.7811 69.521 26.7811 67.7918C26.7811 66.0626 28.1834 64.6604 29.9125 64.6604H33.1598C34.889 64.6604 36.2912 66.0626 36.2912 67.7918C36.2912 69.521 34.8896 70.9232 33.1598 70.9232Z" fill="#4D4D4D"/>
<path d="M103.507 70.9232H97.0135C95.2843 70.9232 93.8821 69.521 93.8821 67.7918C93.8821 66.0626 95.2843 64.6604 97.0135 64.6604H103.507C105.236 64.6604 106.638 66.0626 106.638 67.7918C106.638 69.521 105.236 70.9232 103.507 70.9232Z" fill="white"/>
<path d="M60.5771 59.0189H43.261C41.5319 59.0189 40.1296 57.6166 40.1296 55.8874C40.1296 54.1583 41.5319 52.756 43.261 52.756H60.5771C62.3063 52.756 63.7085 54.1583 63.7085 55.8874C63.7085 57.6166 62.3063 59.0189 60.5771 59.0189Z" fill="#4D4D4D"/>
<path d="M106.032 27.9941H88.7159C86.9867 27.9941 85.5845 26.5919 85.5845 24.8627C85.5845 23.1336 86.9867 21.7313 88.7159 21.7313H106.032C107.761 21.7313 109.163 23.1336 109.163 24.8627C109.163 26.5919 107.761 27.9941 106.032 27.9941Z" fill="#4D4D4D"/>
<path d="M78.2536 42.4243H68.8738C67.1447 42.4243 65.7424 41.0221 65.7424 39.2929C65.7424 37.5637 67.1447 36.1615 68.8738 36.1615H78.2536C79.9828 36.1615 81.3851 37.5637 81.3851 39.2929C81.3851 41.0221 79.9828 42.4243 78.2536 42.4243Z" fill="#4D4D4D"/>
<path d="M113.968 42.4243H110.361C108.631 42.4243 107.229 41.0221 107.229 39.2929C107.229 37.5637 108.631 36.1615 110.361 36.1615H113.968C115.697 36.1615 117.099 37.5637 117.099 39.2929C117.099 41.0221 115.697 42.4243 113.968 42.4243Z" fill="white"/>
<path d="M124.791 42.4243H121.183C119.454 42.4243 118.052 41.0221 118.052 39.2929C118.052 37.5637 119.454 36.1615 121.183 36.1615H124.791C126.52 36.1615 127.922 37.5637 127.922 39.2929C127.922 41.0221 126.52 42.4243 124.791 42.4243Z" fill="#4D4D4D"/>
<path d="M164.113 42.4243H154.733C153.004 42.4243 151.602 41.0221 151.602 39.2929C151.602 37.5637 153.004 36.1615 154.733 36.1615H164.113C165.842 36.1615 167.245 37.5637 167.245 39.2929C167.245 41.0221 165.842 42.4243 164.113 42.4243Z" fill="#4D4D4D"/>
<path d="M56.2481 42.4249C56.0414 42.4249 55.841 42.4061 55.6343 42.3623C55.4339 42.3247 55.2398 42.2621 55.0519 42.1869C54.864 42.1055 54.6761 42.0116 54.507 41.8988C54.3379 41.7798 54.1751 41.6546 54.0311 41.5043C53.887 41.3602 53.7555 41.2037 53.6428 41.0283C53.53 40.8592 53.4361 40.6776 53.3547 40.4897C53.2795 40.3018 53.2169 40.1014 53.1793 39.9073C53.1355 39.7006 53.1167 39.4939 53.1167 39.2935C53.1167 38.4668 53.4486 37.6589 54.0311 37.0765C54.1751 36.9324 54.3379 36.8009 54.507 36.6882C54.6761 36.5754 54.8578 36.4815 55.0519 36.4001C55.2398 36.3249 55.4339 36.2623 55.6343 36.2247C56.6552 36.018 57.7386 36.35 58.4651 37.0765C58.6092 37.2205 58.7344 37.3833 58.8534 37.5524C58.9662 37.7215 59.0601 37.9032 59.1415 38.0973C59.2167 38.2852 59.2793 38.4793 59.3169 38.6797C59.3607 38.8802 59.3795 39.0868 59.3795 39.2935C59.3795 40.1202 59.0476 40.9281 58.4651 41.5043C57.8764 42.093 57.0748 42.4249 56.2481 42.4249Z" fill="#4D4D4D"/>
<path d="M75.0072 59.0189H71.7606C70.0314 59.0189 68.6292 57.6166 68.6292 55.8874C68.6292 54.1583 70.0314 52.756 71.7606 52.756H75.0072C76.7364 52.756 78.1386 54.1583 78.1386 55.8874C78.1386 57.6166 76.7364 59.0189 75.0072 59.0189Z" fill="#4D4D4D"/>
<path d="M134.915 59.0189H128.015C126.286 59.0189 124.884 57.6166 124.884 55.8874C124.884 54.1583 126.286 52.756 128.015 52.756H134.915C136.644 52.756 138.046 54.1583 138.046 55.8874C138.046 57.6166 136.644 59.0189 134.915 59.0189Z" fill="white"/>
<path d="M103.507 115.657H97.0135C95.2843 115.657 93.8821 114.254 93.8821 112.525C93.8821 110.796 95.2843 109.394 97.0135 109.394H103.507C105.236 109.394 106.638 110.796 106.638 112.525C106.638 114.254 105.236 115.657 103.507 115.657Z" fill="white"/>
<path d="M18.3688 115.657H11.8755C10.1464 115.657 8.74414 114.254 8.74414 112.525C8.74414 110.796 10.1464 109.394 11.8755 109.394H18.3688C20.098 109.394 21.5002 110.796 21.5002 112.525C21.5002 114.254 20.098 115.657 18.3688 115.657Z" fill="#4D4D4D"/>
<path d="M38.5715 130.087H32.0776C30.3484 130.087 28.9462 128.684 28.9462 126.955C28.9462 125.226 30.3484 123.824 32.0776 123.824H38.5709C40.3 123.824 41.7023 125.226 41.7023 126.955C41.7023 128.684 40.3006 130.087 38.5715 130.087Z" fill="#4D4D4D"/>
<path d="M115.773 130.087H109.279C107.549 130.087 106.147 128.684 106.147 126.955C106.147 125.226 107.549 123.824 109.279 123.824H115.773C117.502 123.824 118.904 125.226 118.904 126.955C118.904 128.684 117.502 130.087 115.773 130.087Z" fill="white"/>
<path d="M85.83 145.96H79.3367C77.6076 145.96 76.2053 144.558 76.2053 142.828C76.2053 141.099 77.6076 139.697 79.3367 139.697H85.83C87.5592 139.697 88.9614 141.099 88.9614 142.828C88.9614 144.558 87.5592 145.96 85.83 145.96Z" fill="#4D4D4D"/>
<path d="M67.4317 160.029H60.9378C59.2086 160.029 57.8064 158.627 57.8064 156.898C57.8064 155.169 59.2086 153.766 60.9378 153.766H67.4317C69.1609 153.766 70.5631 155.169 70.5631 156.898C70.5631 158.627 69.1609 160.029 67.4317 160.029Z" fill="#4D4D4D"/>
<path d="M122.266 160.029H115.773C114.043 160.029 112.641 158.627 112.641 156.898C112.641 155.169 114.043 153.766 115.773 153.766H122.266C123.995 153.766 125.397 155.169 125.397 156.898C125.397 158.627 123.995 160.029 122.266 160.029Z" fill="white"/>
<path d="M115.411 169.048H102.424C100.695 169.048 99.2925 167.646 99.2925 165.917C99.2925 164.188 100.695 162.785 102.424 162.785H115.411C117.14 162.785 118.542 164.188 118.542 165.917C118.542 167.646 117.141 169.048 115.411 169.048Z" fill="white"/>
<path d="M94.8484 188.168H83.6649C81.9357 188.168 80.5334 186.766 80.5334 185.037C80.5334 183.307 81.9357 181.905 83.6649 181.905H94.8477C96.5769 181.905 97.9791 183.307 97.9791 185.037C97.9791 186.766 96.5775 188.168 94.8484 188.168Z" fill="white"/>
<path d="M137.778 178.427H133.81C132.081 178.427 130.679 177.025 130.679 175.296C130.679 173.567 132.081 172.165 133.81 172.165H137.778C139.507 172.165 140.91 173.567 140.91 175.296C140.91 177.025 139.507 178.427 137.778 178.427Z" fill="#4D4D4D"/>
<path d="M108.557 198.269H104.228C102.498 198.269 101.096 196.866 101.096 195.137C101.096 193.408 102.498 192.006 104.228 192.006H108.557C110.286 192.006 111.688 193.408 111.688 195.137C111.688 196.866 110.286 198.269 108.557 198.269Z" fill="white"/>
<path d="M73.5643 198.269H69.2354C67.5062 198.269 66.104 196.866 66.104 195.137C66.104 193.408 67.5062 192.006 69.2354 192.006H73.5643C75.2934 192.006 76.6957 193.408 76.6957 195.137C76.6957 196.866 75.2934 198.269 73.5643 198.269Z" fill="#4D4D4D"/>
<path d="M58.6468 170.633H51.0713C49.3422 170.633 47.9399 169.231 47.9399 167.501C47.9399 165.772 49.3422 164.37 51.0713 164.37H58.6475C60.3766 164.37 61.7789 165.772 61.7789 167.501C61.7789 169.231 60.376 170.633 58.6468 170.633Z" fill="#4D4D4D"/>
<path d="M166.278 169.048H158.701C156.972 169.048 155.57 167.646 155.57 165.917C155.57 164.188 156.972 162.785 158.701 162.785H166.278C168.007 162.785 169.409 164.188 169.409 165.917C169.409 167.646 168.007 169.048 166.278 169.048Z" fill="#4D4D4D"/>
<path d="M174.3 160.195H163.117C161.388 160.195 159.986 158.793 159.986 157.064C159.986 155.335 161.388 153.932 163.117 153.932H174.3C176.029 153.932 177.432 155.335 177.432 157.064C177.432 158.793 176.029 160.195 174.3 160.195Z" fill="#4D4D4D"/>
<path d="M46.5076 160.029H34.2419C32.5127 160.029 31.1105 158.627 31.1105 156.898C31.1105 155.169 32.5127 153.766 34.2419 153.766H46.5076C48.2367 153.766 49.639 155.169 49.639 156.898C49.639 158.627 48.2367 160.029 46.5076 160.029Z" fill="#4D4D4D"/>
<path d="M188.283 145.96H181.79C180.061 145.96 178.658 144.558 178.658 142.828C178.658 141.099 180.061 139.697 181.79 139.697H188.283C190.012 139.697 191.415 141.099 191.415 142.828C191.415 144.558 190.012 145.96 188.283 145.96Z" fill="#4D4D4D"/>
<path d="M172.861 145.96H166.367C164.638 145.96 163.236 144.558 163.236 142.828C163.236 141.099 164.638 139.697 166.367 139.697H172.861C174.59 139.697 175.992 141.099 175.992 142.828C175.992 144.558 174.59 145.96 172.861 145.96Z" fill="#4D4D4D"/>
<path d="M133.088 145.96H126.594C124.865 145.96 123.463 144.558 123.463 142.828C123.463 141.099 124.865 139.697 126.594 139.697H133.088C134.817 139.697 136.219 141.099 136.219 142.828C136.219 144.558 134.818 145.96 133.088 145.96Z" fill="white"/>
<path d="M77.5324 130.087H67.0704C65.3412 130.087 63.939 128.684 63.939 126.955C63.939 125.226 65.3412 123.824 67.0704 123.824H77.5324C79.2616 123.824 80.6638 125.226 80.6638 126.955C80.6638 128.684 79.2616 130.087 77.5324 130.087Z" fill="#4D4D4D"/>
<path d="M56.6089 115.657H41.4573C39.7282 115.657 38.3259 114.254 38.3259 112.525C38.3259 110.796 39.7282 109.394 41.4573 109.394H56.6089C58.3381 109.394 59.7403 110.796 59.7403 112.525C59.7403 114.254 58.3381 115.657 56.6089 115.657Z" fill="#4D4D4D"/>
<path d="M31.0905 115.656C30.8838 115.656 30.6834 115.637 30.4768 115.593C30.2763 115.556 30.0822 115.493 29.8943 115.418C29.7064 115.337 29.5248 115.243 29.3557 115.13C29.1804 115.017 29.0238 114.886 28.8735 114.742C28.291 114.159 27.9591 113.351 27.9591 112.525C27.9591 112.324 27.9779 112.117 28.0217 111.911C28.0593 111.717 28.1219 111.516 28.1971 111.328C28.2785 111.14 28.3725 110.959 28.4852 110.79C28.6042 110.614 28.7294 110.458 28.8735 110.314C29.0238 110.17 29.1804 110.038 29.3557 109.925C29.5248 109.807 29.7064 109.713 29.8943 109.637C30.0822 109.556 30.2763 109.493 30.4768 109.456C31.4976 109.249 32.5811 109.587 33.3075 110.314C33.4516 110.458 33.5831 110.614 33.6958 110.79C33.8086 110.959 33.9025 111.14 33.9839 111.328C34.0591 111.516 34.1217 111.717 34.1593 111.911C34.2031 112.117 34.2219 112.324 34.2219 112.525C34.2219 113.351 33.89 114.159 33.3075 114.742C33.1635 114.886 33.0007 115.017 32.8316 115.13C32.6625 115.243 32.4746 115.337 32.2867 115.418C32.0988 115.493 31.9047 115.556 31.7043 115.593C31.4976 115.637 31.2972 115.656 31.0905 115.656Z" fill="#4D4D4D"/>
<path d="M114.179 115.656C113.353 115.656 112.545 115.324 111.962 114.742C111.38 114.159 111.048 113.351 111.048 112.525C111.048 112.318 111.067 112.117 111.11 111.911C111.148 111.717 111.211 111.516 111.286 111.328C111.361 111.14 111.461 110.959 111.574 110.79C111.687 110.614 111.818 110.458 111.962 110.314C112.689 109.587 113.772 109.249 114.787 109.456C114.987 109.493 115.188 109.556 115.375 109.637C115.563 109.713 115.745 109.807 115.914 109.919C116.089 110.038 116.246 110.17 116.39 110.314C116.534 110.458 116.666 110.614 116.778 110.79C116.891 110.959 116.991 111.14 117.066 111.328C117.148 111.516 117.204 111.717 117.248 111.911C117.286 112.117 117.311 112.318 117.311 112.525C117.311 113.351 116.972 114.159 116.39 114.742C116.246 114.886 116.089 115.017 115.914 115.13C115.745 115.243 115.563 115.337 115.375 115.418C115.188 115.493 114.987 115.556 114.787 115.593C114.586 115.637 114.38 115.656 114.179 115.656Z" fill="white"/>
<path d="M113.966 27.9954C113.766 27.9954 113.559 27.9766 113.359 27.9327C113.158 27.8952 112.958 27.8325 112.77 27.7574C112.582 27.676 112.401 27.582 112.231 27.4693C112.062 27.3503 111.899 27.2188 111.755 27.0747C111.173 26.4923 110.841 25.6907 110.841 24.864C110.841 24.6573 110.86 24.4506 110.897 24.2502C110.941 24.0498 110.998 23.8557 111.079 23.6678C111.154 23.4736 111.254 23.292 111.367 23.1229C111.48 22.9538 111.611 22.791 111.755 22.6469C111.899 22.5029 112.062 22.3714 112.231 22.2586C112.401 22.1459 112.582 22.052 112.77 21.9706C112.958 21.8954 113.158 21.8328 113.359 21.7952C113.76 21.7138 114.179 21.7138 114.58 21.7952C114.78 21.8328 114.981 21.8954 115.169 21.9706C115.357 22.052 115.538 22.1459 115.707 22.2586C115.876 22.3714 116.039 22.5029 116.183 22.6469C116.327 22.791 116.459 22.9538 116.572 23.1229C116.684 23.292 116.784 23.4736 116.86 23.6678C116.941 23.8557 116.997 24.0498 117.041 24.2502C117.079 24.4506 117.098 24.6573 117.098 24.864C117.098 25.6907 116.766 26.4923 116.183 27.0747C116.039 27.2188 115.876 27.3503 115.707 27.4693C115.538 27.582 115.357 27.676 115.169 27.7574C114.981 27.8325 114.78 27.8952 114.58 27.9327C114.38 27.9766 114.173 27.9954 113.966 27.9954Z" fill="#4D4D4D"/>
<path d="M120.101 84.2711H113.607C111.878 84.2711 110.476 82.8689 110.476 81.1397C110.476 79.4105 111.878 78.0083 113.607 78.0083H120.101C121.831 78.0083 123.233 79.4105 123.233 81.1397C123.233 82.8689 121.831 84.2711 120.101 84.2711Z" fill="white"/>
<path d="M196.483 84.2711H184.751C183.022 84.2711 181.62 82.8689 181.62 81.1397C181.62 79.4105 183.022 78.0083 184.751 78.0083H196.483C198.212 78.0083 199.615 79.4105 199.615 81.1397C199.615 82.8689 198.212 84.2711 196.483 84.2711Z" fill="#4D4D4D"/>
<path d="M69.9562 84.2711H63.4629C61.7338 84.2711 60.3315 82.8689 60.3315 81.1397C60.3315 79.4105 61.7338 78.0083 63.4629 78.0083H69.9562C71.6854 78.0083 73.0876 79.4105 73.0876 81.1397C73.0876 82.8689 71.686 84.2711 69.9562 84.2711Z" fill="#4D4D4D"/>
<path d="M158.764 97.2558C157.944 97.2558 157.136 96.9239 156.553 96.3414C155.971 95.759 155.633 94.9511 155.633 94.1307C155.633 93.304 155.971 92.4961 156.553 91.9136C157.28 91.1872 158.363 90.8552 159.378 91.0556C159.578 91.0995 159.773 91.1558 159.967 91.2373C160.155 91.3124 160.336 91.4126 160.505 91.5254C160.674 91.6381 160.837 91.7696 160.981 91.9136C161.564 92.4961 161.896 93.304 161.896 94.1307C161.896 94.9511 161.564 95.759 160.981 96.3414C160.837 96.4855 160.674 96.617 160.505 96.7297C160.336 96.8425 160.155 96.9427 159.967 97.0178C159.773 97.0992 159.578 97.1556 159.378 97.1995C159.178 97.237 158.971 97.2558 158.764 97.2558Z" fill="#4D4D4D"/>
<path d="M54.0562 97.2558C53.8495 97.2558 53.6429 97.237 53.4425 97.1995C53.242 97.1556 53.0479 97.0992 52.8537 97.0178C52.6659 96.9427 52.4842 96.8425 52.3151 96.7297C52.146 96.617 51.9832 96.4855 51.8392 96.3414C51.6951 96.1974 51.5636 96.0346 51.4509 95.8655C51.3381 95.6964 51.2379 95.5148 51.1628 95.3269C51.0814 95.1327 51.025 94.9386 50.9812 94.7382C50.9436 94.5378 50.9248 94.3311 50.9248 94.1244C50.9248 93.924 50.9436 93.7173 50.9812 93.5169C51.025 93.3165 51.0814 93.1161 51.1628 92.9282C51.2379 92.7403 51.3381 92.5587 51.4509 92.3896C51.5636 92.2205 51.6951 92.0577 51.8392 91.9136C51.9832 91.7696 52.146 91.6381 52.3151 91.5254C52.4842 91.4126 52.6659 91.3124 52.8537 91.2373C53.0479 91.1558 53.242 91.0995 53.4425 91.0556C54.4633 90.8552 55.5405 91.1872 56.267 91.9136C56.411 92.0577 56.5425 92.2205 56.6553 92.3896C56.768 92.5587 56.8682 92.7403 56.9434 92.9282C57.0248 93.1161 57.0811 93.3165 57.125 93.5169C57.1626 93.7173 57.1876 93.924 57.1876 94.1244C57.1876 94.3311 57.1626 94.5378 57.125 94.7382C57.0811 94.9386 57.0248 95.1327 56.9434 95.3269C56.8682 95.5148 56.768 95.6964 56.6553 95.8655C56.5425 96.0346 56.411 96.1974 56.267 96.3414C56.1229 96.4855 55.9664 96.617 55.791 96.7297C55.6219 96.8425 55.4403 96.9427 55.2524 97.0178C55.0645 97.0992 54.8641 97.1556 54.6637 97.1995C54.4633 97.237 54.2566 97.2558 54.0562 97.2558Z" fill="#4D4D4D"/>
<path d="M172.771 97.2583H166.278C164.548 97.2583 163.146 95.8561 163.146 94.1269C163.146 92.3977 164.548 90.9955 166.278 90.9955H172.771C174.5 90.9955 175.902 92.3977 175.902 94.1269C175.902 95.8561 174.5 97.2583 172.771 97.2583Z" fill="#4D4D4D"/>
<path d="M208.124 97.2583H201.631C199.902 97.2583 198.5 95.8561 198.5 94.1269C198.5 92.3977 199.902 90.9955 201.631 90.9955H208.124C209.854 90.9955 211.256 92.3977 211.256 94.1269C211.256 95.8561 209.854 97.2583 208.124 97.2583Z" fill="#4D4D4D"/>
<path d="M38.21 97.2583H31.7167C29.9876 97.2583 28.5853 95.8561 28.5853 94.1269C28.5853 92.3977 29.9876 90.9955 31.7167 90.9955H38.21C39.9392 90.9955 41.3414 92.3977 41.3414 94.1269C41.3414 95.8561 39.9398 97.2583 38.21 97.2583Z" fill="#4D4D4D"/>
<path d="M161.587 70.9232H155.094C153.364 70.9232 151.962 69.521 151.962 67.7918C151.962 66.0626 153.364 64.6604 155.094 64.6604H161.587C163.317 64.6604 164.719 66.0626 164.719 67.7918C164.719 69.521 163.317 70.9232 161.587 70.9232Z" fill="#4D4D4D"/>
<path opacity="0.25" d="M119.149 211.053C106.648 206.638 95.2123 199.955 85.3421 191.507C62.4265 171.904 47.903 142.782 47.903 110.266C47.903 81.4316 59.3264 55.2593 77.8894 36.0387C88.1165 25.4483 100.511 16.9622 114.358 11.3006C120.132 8.94269 126.161 7.08076 132.387 5.75367C125.167 4.21427 117.68 3.39697 110.001 3.39697C95.6964 3.39697 82.056 6.20897 69.5868 11.3006C55.7397 16.9622 43.3456 25.4483 33.1184 36.0387C14.5554 55.2593 3.13208 81.4316 3.13208 110.266C3.13208 142.782 17.6555 171.904 40.5712 191.507C50.4413 199.955 61.8772 206.638 74.3778 211.053C85.5193 214.992 97.5126 217.134 110.001 217.134C117.676 217.134 125.162 216.32 132.38 214.782C127.858 213.817 123.439 212.57 119.149 211.053Z" fill="black"/>
<path d="M110 220C49.3459 220 0 170.654 0 110C0 49.3459 49.3459 0 110 0C170.654 0 220 49.3459 220 110C220 170.654 170.654 220 110 220ZM110 6.26281C52.7992 6.26281 6.26281 52.7992 6.26281 110C6.26281 167.201 52.7992 213.737 110 213.737C167.201 213.737 213.737 167.201 213.737 110C213.737 52.7992 167.201 6.26281 110 6.26281Z" fill="#333333"/>
<path d="M156.782 32.9436C156.214 32.9436 155.64 32.7889 155.123 32.4658C151.426 30.1498 147.534 28.0856 143.554 26.3288C141.972 25.6305 141.256 23.7818 141.954 22.1998C142.652 20.6178 144.502 19.9013 146.083 20.5996C150.337 22.4772 154.497 24.6836 158.447 27.1587C159.913 28.0768 160.357 30.0089 159.439 31.475C158.844 32.4232 157.825 32.9436 156.782 32.9436Z" fill="white"/>
<path d="M171.247 181.838C170.411 181.838 169.577 181.504 168.96 180.846C167.779 179.582 167.845 177.601 169.107 176.42C187.504 159.208 198.056 134.935 198.056 109.825C198.056 84.5711 187.929 61.0649 169.54 43.6368C168.285 42.4468 168.232 40.4653 169.422 39.2096C170.611 37.9545 172.594 37.9013 173.848 39.0906C193.497 57.713 204.319 82.8332 204.319 109.824C204.319 136.661 193.044 162.601 173.386 180.992C172.782 181.558 172.014 181.838 171.247 181.838Z" fill="white"/>
<path d="M158.076 192.147C157.051 192.147 156.046 191.645 155.446 190.721C154.505 189.27 154.917 187.331 156.368 186.389C157.964 185.353 159.55 184.252 161.08 183.116C162.469 182.086 164.43 182.376 165.461 183.765C166.492 185.153 166.201 187.115 164.812 188.146C163.177 189.359 161.483 190.535 159.777 191.643C159.251 191.984 158.66 192.147 158.076 192.147Z" fill="white"/>
</svg>
